<svg xmlns="http://www.w3.org/2000/svg" xmlns:xlink="http://www.w3.org/1999/xlink" width="1024" zoomAndPan="magnify" viewBox="0 0 768 576" height="768" preserveAspectRatio="xMidYMid meet" version="1.0"><defs><g/><clipPath id="94e1fb44f6"><path d="M 168 72 L 600 72 L 600 504 L 168 504 Z M 168 72 " clip-rule="nonzero"/></clipPath><clipPath id="9758dd1e96"><path d="M 384 72 C 494.246094 72 586.796875 155.023438 598.730469 264.621094 C 610.664062 374.21875 538.144531 475.214844 430.484375 498.9375 C 322.824219 522.664062 214.570312 461.503906 179.332031 357.042969 C 144.09375 252.582031 193.175781 138.347656 293.210938 92.007812 L 384 288 L 384 72 " clip-rule="nonzero"/></clipPath><clipPath id="e94a62cae5"><path d="M 283.199219 72 L 384 72 L 384 288 L 283.199219 288 Z M 283.199219 72 " clip-rule="nonzero"/></clipPath><clipPath id="222914a6d2"><path d="M 283.527344 96.789062 C 314.507812 80.511719 348.980469 72.003906 383.976562 72 L 384 288 L 283.527344 96.789062 " clip-rule="nonzero"/></clipPath></defs><g fill="#000000" fill-opacity="1"><g transform="translate(404.40059, 528.075358)"><g><path d="M 1.296875 -13.84375 L 3.203125 -13.84375 L 5.640625 -2.609375 L 8.109375 -13.84375 L 9.984375 -13.84375 L 10.234375 0 L 8.6875 0 L 8.53125 -10.046875 L 6.1875 0 L 5.09375 0 L 2.765625 -10.046875 L 2.609375 0 L 1.046875 0 Z M 1.296875 -13.84375 "/></g></g></g><g fill="#000000" fill-opacity="1"><g transform="translate(415.685036, 528.075358)"><g><path d="M 3.640625 0.140625 C 2.585938 0.140625 1.84375 -0.164062 1.40625 -0.78125 C 0.96875 -1.40625 0.75 -2.3125 0.75 -3.5 L 0.75 -6.375 C 0.75 -7.5625 0.96875 -8.460938 1.40625 -9.078125 C 1.84375 -9.703125 2.585938 -10.015625 3.640625 -10.015625 C 4.679688 -10.015625 5.421875 -9.703125 5.859375 -9.078125 C 6.296875 -8.460938 6.515625 -7.5625 6.515625 -6.375 L 6.515625 -3.5 C 6.515625 -2.3125 6.296875 -1.40625 5.859375 -0.78125 C 5.421875 -0.164062 4.679688 0.140625 3.640625 0.140625 Z M 3.640625 -1.21875 C 3.972656 -1.21875 4.210938 -1.3125 4.359375 -1.5 C 4.503906 -1.695312 4.59375 -1.9375 4.625 -2.21875 C 4.664062 -2.507812 4.6875 -2.898438 4.6875 -3.390625 L 4.6875 -6.484375 C 4.6875 -6.972656 4.664062 -7.359375 4.625 -7.640625 C 4.59375 -7.929688 4.503906 -8.175781 4.359375 -8.375 C 4.210938 -8.570312 3.972656 -8.671875 3.640625 -8.671875 C 3.304688 -8.671875 3.0625 -8.570312 2.90625 -8.375 C 2.757812 -8.175781 2.664062 -7.929688 2.625 -7.640625 C 2.59375 -7.359375 2.578125 -6.972656 2.578125 -6.484375 L 2.578125 -3.390625 C 2.578125 -2.898438 2.59375 -2.507812 2.625 -2.21875 C 2.664062 -1.9375 2.757812 -1.695312 2.90625 -1.5 C 3.0625 -1.3125 3.304688 -1.21875 3.640625 -1.21875 Z M 3.640625 -1.21875 "/></g></g></g><g fill="#000000" fill-opacity="1"><g transform="translate(422.951542, 528.075358)"><g><path d="M 4.46875 0.140625 C 3.875 0.140625 3.3125 -0.144531 2.78125 -0.71875 L 2.78125 0 L 0.953125 0 L 0.953125 -13.84375 L 2.78125 -13.84375 L 2.78125 -9.09375 C 3.320312 -9.707031 3.945312 -10.015625 4.65625 -10.015625 C 5.550781 -10.015625 6.148438 -9.628906 6.453125 -8.859375 C 6.753906 -8.085938 6.90625 -7.238281 6.90625 -6.3125 L 6.90625 -3.921875 C 6.90625 -1.210938 6.09375 0.140625 4.46875 0.140625 Z M 4.078125 -1.296875 C 4.503906 -1.296875 4.773438 -1.507812 4.890625 -1.9375 C 5.015625 -2.363281 5.078125 -3.023438 5.078125 -3.921875 L 5.078125 -6.3125 C 5.078125 -7.039062 5.007812 -7.597656 4.875 -7.984375 C 4.738281 -8.378906 4.453125 -8.578125 4.015625 -8.578125 C 3.617188 -8.578125 3.207031 -8.410156 2.78125 -8.078125 L 2.78125 -1.75 C 3.15625 -1.445312 3.585938 -1.296875 4.078125 -1.296875 Z M 4.078125 -1.296875 "/></g></g></g><g fill="#000000" fill-opacity="1"><g transform="translate(430.594192, 528.075358)"><g><path d="M 1.046875 -13.265625 L 2.875 -13.265625 L 2.875 -11.34375 L 1.046875 -11.34375 Z M 1.046875 -9.875 L 2.875 -9.875 L 2.875 0 L 1.046875 0 Z M 1.046875 -9.875 "/></g></g></g><g fill="#000000" fill-opacity="1"><g transform="translate(434.509559, 528.075358)"><g><path d="M 1.09375 -13.84375 L 2.921875 -13.84375 L 2.921875 0 L 1.09375 0 Z M 1.09375 -13.84375 "/></g></g></g><g fill="#000000" fill-opacity="1"><g transform="translate(438.424926, 528.075358)"><g><path d="M 3.65625 0.140625 C 2.894531 0.140625 2.300781 -0.00390625 1.875 -0.296875 C 1.457031 -0.585938 1.160156 -1.015625 0.984375 -1.578125 C 0.816406 -2.148438 0.734375 -2.894531 0.734375 -3.8125 L 0.734375 -6.0625 C 0.734375 -7.4375 0.945312 -8.4375 1.375 -9.0625 C 1.800781 -9.695312 2.5625 -10.015625 3.65625 -10.015625 C 4.457031 -10.015625 5.054688 -9.847656 5.453125 -9.515625 C 5.859375 -9.191406 6.128906 -8.726562 6.265625 -8.125 C 6.398438 -7.53125 6.46875 -6.722656 6.46875 -5.703125 L 6.46875 -4.90625 L 2.5625 -4.90625 L 2.5625 -2.921875 C 2.5625 -2.316406 2.648438 -1.878906 2.828125 -1.609375 C 3.003906 -1.347656 3.285156 -1.21875 3.671875 -1.21875 C 4.054688 -1.21875 4.316406 -1.347656 4.453125 -1.609375 C 4.597656 -1.878906 4.671875 -2.289062 4.671875 -2.84375 L 4.671875 -3.4375 L 6.4375 -3.4375 L 6.4375 -3.0625 C 6.4375 -2.019531 6.210938 -1.222656 5.765625 -0.671875 C 5.328125 -0.128906 4.625 0.140625 3.65625 0.140625 Z M 4.671875 -5.890625 L 4.671875 -6.78125 C 4.671875 -7.457031 4.601562 -7.941406 4.46875 -8.234375 C 4.332031 -8.523438 4.054688 -8.671875 3.640625 -8.671875 C 3.347656 -8.671875 3.125 -8.597656 2.96875 -8.453125 C 2.8125 -8.316406 2.703125 -8.09375 2.640625 -7.78125 C 2.585938 -7.46875 2.5625 -7.015625 2.5625 -6.421875 L 2.5625 -5.890625 Z M 4.671875 -5.890625 "/></g></g></g><g fill="#000000" fill-opacity="1"><g transform="translate(445.623042, 528.075358)"><g/></g></g><g fill="#000000" fill-opacity="1"><g transform="translate(449.538409, 528.075358)"><g><path d="M 4.65625 0.15625 C 3.6875 0.15625 2.929688 -0.0351562 2.390625 -0.421875 C 1.847656 -0.816406 1.472656 -1.359375 1.265625 -2.046875 C 1.054688 -2.742188 0.953125 -3.617188 0.953125 -4.671875 L 0.953125 -13.84375 L 2.796875 -13.84375 L 2.796875 -4.578125 C 2.796875 -3.535156 2.914062 -2.738281 3.15625 -2.1875 C 3.40625 -1.644531 3.90625 -1.375 4.65625 -1.375 C 5.394531 -1.375 5.882812 -1.644531 6.125 -2.1875 C 6.375 -2.738281 6.5 -3.535156 6.5 -4.578125 L 6.5 -13.84375 L 8.328125 -13.84375 L 8.328125 -4.671875 C 8.328125 -3.617188 8.222656 -2.742188 8.015625 -2.046875 C 7.804688 -1.359375 7.4375 -0.816406 6.90625 -0.421875 C 6.375 -0.0351562 5.625 0.15625 4.65625 0.15625 Z M 4.65625 0.15625 "/></g></g></g><g fill="#000000" fill-opacity="1"><g transform="translate(458.822428, 528.075358)"><g><path d="M 3.21875 0.140625 C 2.414062 0.140625 1.765625 -0.109375 1.265625 -0.609375 C 0.773438 -1.117188 0.492188 -1.789062 0.421875 -2.625 L 1.953125 -3.09375 C 2.035156 -2.457031 2.1875 -1.984375 2.40625 -1.671875 C 2.632812 -1.367188 2.957031 -1.21875 3.375 -1.21875 C 3.6875 -1.21875 3.929688 -1.3125 4.109375 -1.5 C 4.285156 -1.6875 4.375 -1.9375 4.375 -2.25 C 4.375 -2.539062 4.3125 -2.800781 4.1875 -3.03125 C 4.0625 -3.257812 3.859375 -3.488281 3.578125 -3.71875 L 1.875 -5.171875 C 1.488281 -5.503906 1.191406 -5.851562 0.984375 -6.21875 C 0.773438 -6.59375 0.671875 -7.050781 0.671875 -7.59375 C 0.671875 -8.351562 0.894531 -8.945312 1.34375 -9.375 C 1.800781 -9.800781 2.425781 -10.015625 3.21875 -10.015625 C 3.96875 -10.015625 4.554688 -9.769531 4.984375 -9.28125 C 5.410156 -8.800781 5.65625 -8.179688 5.71875 -7.421875 L 4.5 -6.953125 C 4.414062 -7.515625 4.28125 -7.941406 4.09375 -8.234375 C 3.914062 -8.523438 3.644531 -8.671875 3.28125 -8.671875 C 2.988281 -8.671875 2.753906 -8.570312 2.578125 -8.375 C 2.398438 -8.175781 2.3125 -7.9375 2.3125 -7.65625 C 2.3125 -7.289062 2.472656 -6.960938 2.796875 -6.671875 L 4.546875 -5.0625 C 4.992188 -4.644531 5.335938 -4.238281 5.578125 -3.84375 C 5.828125 -3.445312 5.953125 -2.960938 5.953125 -2.390625 C 5.953125 -1.566406 5.707031 -0.9375 5.21875 -0.5 C 4.726562 -0.0703125 4.0625 0.140625 3.21875 0.140625 Z M 3.21875 0.140625 "/></g></g></g><g fill="#000000" fill-opacity="1"><g transform="translate(465.216952, 528.075358)"><g><path d="M 3.65625 0.140625 C 2.894531 0.140625 2.300781 -0.00390625 1.875 -0.296875 C 1.457031 -0.585938 1.160156 -1.015625 0.984375 -1.578125 C 0.816406 -2.148438 0.734375 -2.894531 0.734375 -3.8125 L 0.734375 -6.0625 C 0.734375 -7.4375 0.945312 -8.4375 1.375 -9.0625 C 1.800781 -9.695312 2.5625 -10.015625 3.65625 -10.015625 C 4.457031 -10.015625 5.054688 -9.847656 5.453125 -9.515625 C 5.859375 -9.191406 6.128906 -8.726562 6.265625 -8.125 C 6.398438 -7.53125 6.46875 -6.722656 6.46875 -5.703125 L 6.46875 -4.90625 L 2.5625 -4.90625 L 2.5625 -2.921875 C 2.5625 -2.316406 2.648438 -1.878906 2.828125 -1.609375 C 3.003906 -1.347656 3.285156 -1.21875 3.671875 -1.21875 C 4.054688 -1.21875 4.316406 -1.347656 4.453125 -1.609375 C 4.597656 -1.878906 4.671875 -2.289062 4.671875 -2.84375 L 4.671875 -3.4375 L 6.4375 -3.4375 L 6.4375 -3.0625 C 6.4375 -2.019531 6.210938 -1.222656 5.765625 -0.671875 C 5.328125 -0.128906 4.625 0.140625 3.65625 0.140625 Z M 4.671875 -5.890625 L 4.671875 -6.78125 C 4.671875 -7.457031 4.601562 -7.941406 4.46875 -8.234375 C 4.332031 -8.523438 4.054688 -8.671875 3.640625 -8.671875 C 3.347656 -8.671875 3.125 -8.597656 2.96875 -8.453125 C 2.8125 -8.316406 2.703125 -8.09375 2.640625 -7.78125 C 2.585938 -7.46875 2.5625 -7.015625 2.5625 -6.421875 L 2.5625 -5.890625 Z M 4.671875 -5.890625 "/></g></g></g><g fill="#000000" fill-opacity="1"><g transform="translate(472.415068, 528.075358)"><g><path d="M 0.96875 -9.875 L 2.796875 -9.875 L 2.796875 -8.484375 C 3.140625 -9.035156 3.488281 -9.425781 3.84375 -9.65625 C 4.207031 -9.882812 4.585938 -10 4.984375 -10 C 5.085938 -10 5.1875 -9.992188 5.28125 -9.984375 L 5.28125 -7.96875 C 4.914062 -8.101562 4.578125 -8.171875 4.265625 -8.171875 C 3.972656 -8.171875 3.707031 -8.097656 3.46875 -7.953125 C 3.238281 -7.816406 3.015625 -7.570312 2.796875 -7.21875 L 2.796875 0 L 0.96875 0 Z M 0.96875 -9.875 "/></g></g></g><g fill="#000000" fill-opacity="1"><g transform="translate(477.903414, 528.075358)"><g><path d="M 3.21875 0.140625 C 2.414062 0.140625 1.765625 -0.109375 1.265625 -0.609375 C 0.773438 -1.117188 0.492188 -1.789062 0.421875 -2.625 L 1.953125 -3.09375 C 2.035156 -2.457031 2.1875 -1.984375 2.40625 -1.671875 C 2.632812 -1.367188 2.957031 -1.21875 3.375 -1.21875 C 3.6875 -1.21875 3.929688 -1.3125 4.109375 -1.5 C 4.285156 -1.6875 4.375 -1.9375 4.375 -2.25 C 4.375 -2.539062 4.3125 -2.800781 4.1875 -3.03125 C 4.0625 -3.257812 3.859375 -3.488281 3.578125 -3.71875 L 1.875 -5.171875 C 1.488281 -5.503906 1.191406 -5.851562 0.984375 -6.21875 C 0.773438 -6.59375 0.671875 -7.050781 0.671875 -7.59375 C 0.671875 -8.351562 0.894531 -8.945312 1.34375 -9.375 C 1.800781 -9.800781 2.425781 -10.015625 3.21875 -10.015625 C 3.96875 -10.015625 4.554688 -9.769531 4.984375 -9.28125 C 5.410156 -8.800781 5.65625 -8.179688 5.71875 -7.421875 L 4.5 -6.953125 C 4.414062 -7.515625 4.28125 -7.941406 4.09375 -8.234375 C 3.914062 -8.523438 3.644531 -8.671875 3.28125 -8.671875 C 2.988281 -8.671875 2.753906 -8.570312 2.578125 -8.375 C 2.398438 -8.175781 2.3125 -7.9375 2.3125 -7.65625 C 2.3125 -7.289062 2.472656 -6.960938 2.796875 -6.671875 L 4.546875 -5.0625 C 4.992188 -4.644531 5.335938 -4.238281 5.578125 -3.84375 C 5.828125 -3.445312 5.953125 -2.960938 5.953125 -2.390625 C 5.953125 -1.566406 5.707031 -0.9375 5.21875 -0.5 C 4.726562 -0.0703125 4.0625 0.140625 3.21875 0.140625 Z M 3.21875 0.140625 "/></g></g></g><g fill="#000000" fill-opacity="1"><g transform="translate(422.658402, 551.325357)"><g><path d="M 4.1875 0.15625 C 3.101562 0.15625 2.269531 -0.140625 1.6875 -0.734375 C 1.113281 -1.328125 0.8125 -2.175781 0.78125 -3.28125 L 0.78125 -3.4375 L 2.609375 -3.4375 C 2.609375 -2.726562 2.722656 -2.207031 2.953125 -1.875 C 3.191406 -1.539062 3.609375 -1.375 4.203125 -1.375 C 5.234375 -1.375 5.75 -2.359375 5.75 -4.328125 L 5.75 -6.421875 C 5.5625 -6.128906 5.300781 -5.894531 4.96875 -5.71875 C 4.632812 -5.550781 4.21875 -5.46875 3.71875 -5.46875 C 2.644531 -5.46875 1.878906 -5.8125 1.421875 -6.5 C 0.972656 -7.1875 0.75 -8.175781 0.75 -9.46875 C 0.75 -10.820312 1.023438 -11.910156 1.578125 -12.734375 C 2.140625 -13.554688 3.007812 -13.96875 4.1875 -13.96875 C 5.320312 -13.96875 6.171875 -13.546875 6.734375 -12.703125 C 7.304688 -11.867188 7.59375 -10.78125 7.59375 -9.4375 L 7.59375 -4.78125 C 7.59375 -3.289062 7.328125 -2.09375 6.796875 -1.1875 C 6.273438 -0.289062 5.40625 0.15625 4.1875 0.15625 Z M 4.1875 -6.859375 C 4.863281 -6.859375 5.382812 -7.175781 5.75 -7.8125 L 5.75 -9.859375 C 5.75 -11.597656 5.226562 -12.46875 4.1875 -12.46875 C 3.613281 -12.46875 3.203125 -12.226562 2.953125 -11.75 C 2.710938 -11.28125 2.59375 -10.671875 2.59375 -9.921875 C 2.59375 -9.222656 2.617188 -8.664062 2.671875 -8.25 C 2.734375 -7.84375 2.878906 -7.507812 3.109375 -7.25 C 3.335938 -6.988281 3.695312 -6.859375 4.1875 -6.859375 Z M 4.1875 -6.859375 "/></g></g></g><g fill="#000000" fill-opacity="1"><g transform="translate(431.241424, 551.325357)"><g><path d="M 0.703125 -1.296875 L 4.21875 -6.78125 C 4.394531 -7.0625 4.507812 -7.234375 4.5625 -7.296875 C 4.957031 -7.929688 5.242188 -8.457031 5.421875 -8.875 C 5.609375 -9.300781 5.703125 -9.8125 5.703125 -10.40625 C 5.703125 -11.070312 5.59375 -11.582031 5.375 -11.9375 C 5.164062 -12.289062 4.816406 -12.46875 4.328125 -12.46875 C 3.234375 -12.46875 2.6875 -11.617188 2.6875 -9.921875 L 2.6875 -9.453125 L 0.859375 -9.453125 L 0.859375 -9.9375 C 0.859375 -11.226562 1.125 -12.222656 1.65625 -12.921875 C 2.195312 -13.617188 3.054688 -13.96875 4.234375 -13.96875 C 5.328125 -13.96875 6.15625 -13.65625 6.71875 -13.03125 C 7.28125 -12.414062 7.5625 -11.535156 7.5625 -10.390625 C 7.5625 -9.835938 7.492188 -9.335938 7.359375 -8.890625 C 7.222656 -8.453125 7.0625 -8.070312 6.875 -7.75 C 6.695312 -7.4375 6.414062 -6.984375 6.03125 -6.390625 L 2.859375 -1.53125 L 7.234375 -1.53125 L 7.234375 0 L 0.703125 0 Z M 0.703125 -1.296875 "/></g></g></g><g fill="#000000" fill-opacity="1"><g transform="translate(439.414096, 551.325357)"><g><path d="M 0.84375 -2.03125 L 2.671875 -2.03125 L 2.671875 0 L 0.84375 0 Z M 0.84375 -2.03125 "/></g></g></g><g fill="#000000" fill-opacity="1"><g transform="translate(442.628456, 551.325357)"><g><path d="M 4.0625 0.15625 C 2.957031 0.15625 2.117188 -0.148438 1.546875 -0.765625 C 0.972656 -1.390625 0.6875 -2.269531 0.6875 -3.40625 L 0.6875 -3.859375 L 2.5 -3.859375 L 2.5 -3.5625 C 2.519531 -2.851562 2.640625 -2.3125 2.859375 -1.9375 C 3.085938 -1.5625 3.488281 -1.375 4.0625 -1.375 C 4.675781 -1.375 5.09375 -1.585938 5.3125 -2.015625 C 5.539062 -2.441406 5.65625 -3.078125 5.65625 -3.921875 C 5.65625 -4.691406 5.507812 -5.296875 5.21875 -5.734375 C 4.9375 -6.171875 4.476562 -6.414062 3.84375 -6.46875 C 3.800781 -6.476562 3.71875 -6.484375 3.59375 -6.484375 L 3.59375 -8.3125 L 3.828125 -8.3125 C 4.472656 -8.332031 4.9375 -8.5 5.21875 -8.8125 C 5.507812 -9.132812 5.65625 -9.664062 5.65625 -10.40625 C 5.65625 -11.09375 5.539062 -11.609375 5.3125 -11.953125 C 5.082031 -12.304688 4.671875 -12.484375 4.078125 -12.484375 C 3.492188 -12.484375 3.085938 -12.289062 2.859375 -11.90625 C 2.640625 -11.53125 2.519531 -10.976562 2.5 -10.25 L 2.5 -9.96875 L 0.6875 -9.96875 L 0.6875 -10.421875 C 0.6875 -11.554688 0.972656 -12.429688 1.546875 -13.046875 C 2.117188 -13.660156 2.960938 -13.96875 4.078125 -13.96875 C 5.203125 -13.96875 6.050781 -13.65625 6.625 -13.03125 C 7.195312 -12.414062 7.484375 -11.539062 7.484375 -10.40625 C 7.484375 -9.601562 7.304688 -8.941406 6.953125 -8.421875 C 6.597656 -7.910156 6.113281 -7.566406 5.5 -7.390625 C 6.125 -7.191406 6.609375 -6.796875 6.953125 -6.203125 C 7.304688 -5.609375 7.484375 -4.847656 7.484375 -3.921875 C 7.484375 -2.628906 7.207031 -1.625 6.65625 -0.90625 C 6.101562 -0.195312 5.238281 0.15625 4.0625 0.15625 Z M 4.0625 0.15625 "/></g></g></g><g fill="#000000" fill-opacity="1"><g transform="translate(450.78403, 551.325357)"><g><path d="M 3.296875 -6.5 C 2.378906 -6.5 1.703125 -6.773438 1.265625 -7.328125 C 0.828125 -7.890625 0.609375 -8.679688 0.609375 -9.703125 L 0.609375 -10.78125 C 0.609375 -11.832031 0.816406 -12.625 1.234375 -13.15625 C 1.660156 -13.6875 2.347656 -13.953125 3.296875 -13.953125 C 4.242188 -13.953125 4.925781 -13.691406 5.34375 -13.171875 C 5.769531 -12.660156 5.984375 -11.894531 5.984375 -10.875 L 5.984375 -9.65625 C 5.984375 -8.632812 5.769531 -7.851562 5.34375 -7.3125 C 4.914062 -6.769531 4.234375 -6.5 3.296875 -6.5 Z M 8.75 -13.859375 L 10.328125 -13.859375 L 6.53125 0 L 4.9375 0 Z M 3.296875 -7.875 C 3.691406 -7.875 3.960938 -8.035156 4.109375 -8.359375 C 4.253906 -8.679688 4.328125 -9.113281 4.328125 -9.65625 L 4.328125 -10.875 C 4.328125 -11.414062 4.257812 -11.832031 4.125 -12.125 C 3.988281 -12.414062 3.710938 -12.5625 3.296875 -12.5625 C 2.890625 -12.5625 2.617188 -12.410156 2.484375 -12.109375 C 2.359375 -11.816406 2.296875 -11.398438 2.296875 -10.859375 L 2.296875 -9.640625 C 2.296875 -9.097656 2.363281 -8.664062 2.5 -8.34375 C 2.644531 -8.03125 2.910156 -7.875 3.296875 -7.875 Z M 11.9375 0.078125 C 10.15625 0.078125 9.265625 -0.988281 9.265625 -3.125 L 9.265625 -4.203125 C 9.265625 -5.242188 9.472656 -6.03125 9.890625 -6.5625 C 10.304688 -7.101562 10.988281 -7.375 11.9375 -7.375 C 12.875 -7.375 13.550781 -7.113281 13.96875 -6.59375 C 14.394531 -6.082031 14.609375 -5.304688 14.609375 -4.265625 L 14.609375 -3.078125 C 14.609375 -2.035156 14.394531 -1.25 13.96875 -0.71875 C 13.539062 -0.1875 12.863281 0.078125 11.9375 0.078125 Z M 11.9375 -1.296875 C 12.332031 -1.296875 12.597656 -1.453125 12.734375 -1.765625 C 12.878906 -2.078125 12.953125 -2.507812 12.953125 -3.0625 L 12.953125 -4.296875 C 12.953125 -4.835938 12.882812 -5.253906 12.75 -5.546875 C 12.613281 -5.835938 12.34375 -5.984375 11.9375 -5.984375 C 11.519531 -5.984375 11.242188 -5.832031 11.109375 -5.53125 C 10.984375 -5.238281 10.921875 -4.816406 10.921875 -4.265625 L 10.921875 -3.0625 C 10.921875 -2.507812 10.988281 -2.078125 11.125 -1.765625 C 11.269531 -1.453125 11.539062 -1.296875 11.9375 -1.296875 Z M 11.9375 -1.296875 "/></g></g></g><g fill="#000000" fill-opacity="1"><g transform="translate(269.061903, 38.924641)"><g><path d="M 1.078125 -13.84375 L 2.390625 -13.84375 L 6.328125 -4.65625 L 6.328125 -13.84375 L 7.9375 -13.84375 L 7.9375 0 L 6.703125 0 L 2.71875 -9.453125 L 2.71875 0 L 1.078125 0 Z M 1.078125 -13.84375 "/></g></g></g><g fill="#000000" fill-opacity="1"><g transform="translate(278.08946, 38.924641)"><g><path d="M 3.640625 0.140625 C 2.585938 0.140625 1.84375 -0.164062 1.40625 -0.78125 C 0.96875 -1.40625 0.75 -2.3125 0.75 -3.5 L 0.75 -6.375 C 0.75 -7.5625 0.96875 -8.460938 1.40625 -9.078125 C 1.84375 -9.703125 2.585938 -10.015625 3.640625 -10.015625 C 4.679688 -10.015625 5.421875 -9.703125 5.859375 -9.078125 C 6.296875 -8.460938 6.515625 -7.5625 6.515625 -6.375 L 6.515625 -3.5 C 6.515625 -2.3125 6.296875 -1.40625 5.859375 -0.78125 C 5.421875 -0.164062 4.679688 0.140625 3.640625 0.140625 Z M 3.640625 -1.21875 C 3.972656 -1.21875 4.210938 -1.3125 4.359375 -1.5 C 4.503906 -1.695312 4.59375 -1.9375 4.625 -2.21875 C 4.664062 -2.507812 4.6875 -2.898438 4.6875 -3.390625 L 4.6875 -6.484375 C 4.6875 -6.972656 4.664062 -7.359375 4.625 -7.640625 C 4.59375 -7.929688 4.503906 -8.175781 4.359375 -8.375 C 4.210938 -8.570312 3.972656 -8.671875 3.640625 -8.671875 C 3.304688 -8.671875 3.0625 -8.570312 2.90625 -8.375 C 2.757812 -8.175781 2.664062 -7.929688 2.625 -7.640625 C 2.59375 -7.359375 2.578125 -6.972656 2.578125 -6.484375 L 2.578125 -3.390625 C 2.578125 -2.898438 2.59375 -2.507812 2.625 -2.21875 C 2.664062 -1.9375 2.757812 -1.695312 2.90625 -1.5 C 3.0625 -1.3125 3.304688 -1.21875 3.640625 -1.21875 Z M 3.640625 -1.21875 "/></g></g></g><g fill="#000000" fill-opacity="1"><g transform="translate(285.355966, 38.924641)"><g><path d="M 0.921875 -9.875 L 2.75 -9.875 L 2.75 -8.90625 C 3.539062 -9.644531 4.34375 -10.015625 5.15625 -10.015625 C 5.695312 -10.015625 6.082031 -9.820312 6.3125 -9.4375 C 6.539062 -9.050781 6.65625 -8.570312 6.65625 -8 L 6.65625 0 L 4.828125 0 L 4.828125 -7.46875 C 4.828125 -7.84375 4.769531 -8.117188 4.65625 -8.296875 C 4.539062 -8.484375 4.332031 -8.578125 4.03125 -8.578125 C 3.664062 -8.578125 3.238281 -8.375 2.75 -7.96875 L 2.75 0 L 0.921875 0 Z M 0.921875 -9.875 "/></g></g></g><g fill="#000000" fill-opacity="1"><g transform="translate(292.861836, 38.924641)"><g><path d="M 0.84375 -5.84375 L 4.65625 -5.84375 L 4.65625 -4.46875 L 0.84375 -4.46875 Z M 0.84375 -5.84375 "/></g></g></g><g fill="#000000" fill-opacity="1"><g transform="translate(298.350182, 38.924641)"><g><path d="M 1.296875 -13.84375 L 3.203125 -13.84375 L 5.640625 -2.609375 L 8.109375 -13.84375 L 9.984375 -13.84375 L 10.234375 0 L 8.6875 0 L 8.53125 -10.046875 L 6.1875 0 L 5.09375 0 L 2.765625 -10.046875 L 2.609375 0 L 1.046875 0 Z M 1.296875 -13.84375 "/></g></g></g><g fill="#000000" fill-opacity="1"><g transform="translate(309.634628, 38.924641)"><g><path d="M 3.640625 0.140625 C 2.585938 0.140625 1.84375 -0.164062 1.40625 -0.78125 C 0.96875 -1.40625 0.75 -2.3125 0.75 -3.5 L 0.75 -6.375 C 0.75 -7.5625 0.96875 -8.460938 1.40625 -9.078125 C 1.84375 -9.703125 2.585938 -10.015625 3.640625 -10.015625 C 4.679688 -10.015625 5.421875 -9.703125 5.859375 -9.078125 C 6.296875 -8.460938 6.515625 -7.5625 6.515625 -6.375 L 6.515625 -3.5 C 6.515625 -2.3125 6.296875 -1.40625 5.859375 -0.78125 C 5.421875 -0.164062 4.679688 0.140625 3.640625 0.140625 Z M 3.640625 -1.21875 C 3.972656 -1.21875 4.210938 -1.3125 4.359375 -1.5 C 4.503906 -1.695312 4.59375 -1.9375 4.625 -2.21875 C 4.664062 -2.507812 4.6875 -2.898438 4.6875 -3.390625 L 4.6875 -6.484375 C 4.6875 -6.972656 4.664062 -7.359375 4.625 -7.640625 C 4.59375 -7.929688 4.503906 -8.175781 4.359375 -8.375 C 4.210938 -8.570312 3.972656 -8.671875 3.640625 -8.671875 C 3.304688 -8.671875 3.0625 -8.570312 2.90625 -8.375 C 2.757812 -8.175781 2.664062 -7.929688 2.625 -7.640625 C 2.59375 -7.359375 2.578125 -6.972656 2.578125 -6.484375 L 2.578125 -3.390625 C 2.578125 -2.898438 2.59375 -2.507812 2.625 -2.21875 C 2.664062 -1.9375 2.757812 -1.695312 2.90625 -1.5 C 3.0625 -1.3125 3.304688 -1.21875 3.640625 -1.21875 Z M 3.640625 -1.21875 "/></g></g></g><g fill="#000000" fill-opacity="1"><g transform="translate(316.901134, 38.924641)"><g><path d="M 4.46875 0.140625 C 3.875 0.140625 3.3125 -0.144531 2.78125 -0.71875 L 2.78125 0 L 0.953125 0 L 0.953125 -13.84375 L 2.78125 -13.84375 L 2.78125 -9.09375 C 3.320312 -9.707031 3.945312 -10.015625 4.65625 -10.015625 C 5.550781 -10.015625 6.148438 -9.628906 6.453125 -8.859375 C 6.753906 -8.085938 6.90625 -7.238281 6.90625 -6.3125 L 6.90625 -3.921875 C 6.90625 -1.210938 6.09375 0.140625 4.46875 0.140625 Z M 4.078125 -1.296875 C 4.503906 -1.296875 4.773438 -1.507812 4.890625 -1.9375 C 5.015625 -2.363281 5.078125 -3.023438 5.078125 -3.921875 L 5.078125 -6.3125 C 5.078125 -7.039062 5.007812 -7.597656 4.875 -7.984375 C 4.738281 -8.378906 4.453125 -8.578125 4.015625 -8.578125 C 3.617188 -8.578125 3.207031 -8.410156 2.78125 -8.078125 L 2.78125 -1.75 C 3.15625 -1.445312 3.585938 -1.296875 4.078125 -1.296875 Z M 4.078125 -1.296875 "/></g></g></g><g fill="#000000" fill-opacity="1"><g transform="translate(324.543784, 38.924641)"><g><path d="M 1.046875 -13.265625 L 2.875 -13.265625 L 2.875 -11.34375 L 1.046875 -11.34375 Z M 1.046875 -9.875 L 2.875 -9.875 L 2.875 0 L 1.046875 0 Z M 1.046875 -9.875 "/></g></g></g><g fill="#000000" fill-opacity="1"><g transform="translate(328.459151, 38.924641)"><g><path d="M 1.09375 -13.84375 L 2.921875 -13.84375 L 2.921875 0 L 1.09375 0 Z M 1.09375 -13.84375 "/></g></g></g><g fill="#000000" fill-opacity="1"><g transform="translate(332.374518, 38.924641)"><g><path d="M 3.65625 0.140625 C 2.894531 0.140625 2.300781 -0.00390625 1.875 -0.296875 C 1.457031 -0.585938 1.160156 -1.015625 0.984375 -1.578125 C 0.816406 -2.148438 0.734375 -2.894531 0.734375 -3.8125 L 0.734375 -6.0625 C 0.734375 -7.4375 0.945312 -8.4375 1.375 -9.0625 C 1.800781 -9.695312 2.5625 -10.015625 3.65625 -10.015625 C 4.457031 -10.015625 5.054688 -9.847656 5.453125 -9.515625 C 5.859375 -9.191406 6.128906 -8.726562 6.265625 -8.125 C 6.398438 -7.53125 6.46875 -6.722656 6.46875 -5.703125 L 6.46875 -4.90625 L 2.5625 -4.90625 L 2.5625 -2.921875 C 2.5625 -2.316406 2.648438 -1.878906 2.828125 -1.609375 C 3.003906 -1.347656 3.285156 -1.21875 3.671875 -1.21875 C 4.054688 -1.21875 4.316406 -1.347656 4.453125 -1.609375 C 4.597656 -1.878906 4.671875 -2.289062 4.671875 -2.84375 L 4.671875 -3.4375 L 6.4375 -3.4375 L 6.4375 -3.0625 C 6.4375 -2.019531 6.210938 -1.222656 5.765625 -0.671875 C 5.328125 -0.128906 4.625 0.140625 3.65625 0.140625 Z M 4.671875 -5.890625 L 4.671875 -6.78125 C 4.671875 -7.457031 4.601562 -7.941406 4.46875 -8.234375 C 4.332031 -8.523438 4.054688 -8.671875 3.640625 -8.671875 C 3.347656 -8.671875 3.125 -8.597656 2.96875 -8.453125 C 2.8125 -8.316406 2.703125 -8.09375 2.640625 -7.78125 C 2.585938 -7.46875 2.5625 -7.015625 2.5625 -6.421875 L 2.5625 -5.890625 Z M 4.671875 -5.890625 "/></g></g></g><g fill="#000000" fill-opacity="1"><g transform="translate(339.572634, 38.924641)"><g/></g></g><g fill="#000000" fill-opacity="1"><g transform="translate(343.488001, 38.924641)"><g><path d="M 4.65625 0.15625 C 3.6875 0.15625 2.929688 -0.0351562 2.390625 -0.421875 C 1.847656 -0.816406 1.472656 -1.359375 1.265625 -2.046875 C 1.054688 -2.742188 0.953125 -3.617188 0.953125 -4.671875 L 0.953125 -13.84375 L 2.796875 -13.84375 L 2.796875 -4.578125 C 2.796875 -3.535156 2.914062 -2.738281 3.15625 -2.1875 C 3.40625 -1.644531 3.90625 -1.375 4.65625 -1.375 C 5.394531 -1.375 5.882812 -1.644531 6.125 -2.1875 C 6.375 -2.738281 6.5 -3.535156 6.5 -4.578125 L 6.5 -13.84375 L 8.328125 -13.84375 L 8.328125 -4.671875 C 8.328125 -3.617188 8.222656 -2.742188 8.015625 -2.046875 C 7.804688 -1.359375 7.4375 -0.816406 6.90625 -0.421875 C 6.375 -0.0351562 5.625 0.15625 4.65625 0.15625 Z M 4.65625 0.15625 "/></g></g></g><g fill="#000000" fill-opacity="1"><g transform="translate(352.77202, 38.924641)"><g><path d="M 3.21875 0.140625 C 2.414062 0.140625 1.765625 -0.109375 1.265625 -0.609375 C 0.773438 -1.117188 0.492188 -1.789062 0.421875 -2.625 L 1.953125 -3.09375 C 2.035156 -2.457031 2.1875 -1.984375 2.40625 -1.671875 C 2.632812 -1.367188 2.957031 -1.21875 3.375 -1.21875 C 3.6875 -1.21875 3.929688 -1.3125 4.109375 -1.5 C 4.285156 -1.6875 4.375 -1.9375 4.375 -2.25 C 4.375 -2.539062 4.3125 -2.800781 4.1875 -3.03125 C 4.0625 -3.257812 3.859375 -3.488281 3.578125 -3.71875 L 1.875 -5.171875 C 1.488281 -5.503906 1.191406 -5.851562 0.984375 -6.21875 C 0.773438 -6.59375 0.671875 -7.050781 0.671875 -7.59375 C 0.671875 -8.351562 0.894531 -8.945312 1.34375 -9.375 C 1.800781 -9.800781 2.425781 -10.015625 3.21875 -10.015625 C 3.96875 -10.015625 4.554688 -9.769531 4.984375 -9.28125 C 5.410156 -8.800781 5.65625 -8.179688 5.71875 -7.421875 L 4.5 -6.953125 C 4.414062 -7.515625 4.28125 -7.941406 4.09375 -8.234375 C 3.914062 -8.523438 3.644531 -8.671875 3.28125 -8.671875 C 2.988281 -8.671875 2.753906 -8.570312 2.578125 -8.375 C 2.398438 -8.175781 2.3125 -7.9375 2.3125 -7.65625 C 2.3125 -7.289062 2.472656 -6.960938 2.796875 -6.671875 L 4.546875 -5.0625 C 4.992188 -4.644531 5.335938 -4.238281 5.578125 -3.84375 C 5.828125 -3.445312 5.953125 -2.960938 5.953125 -2.390625 C 5.953125 -1.566406 5.707031 -0.9375 5.21875 -0.5 C 4.726562 -0.0703125 4.0625 0.140625 3.21875 0.140625 Z M 3.21875 0.140625 "/></g></g></g><g fill="#000000" fill-opacity="1"><g transform="translate(359.166544, 38.924641)"><g><path d="M 3.65625 0.140625 C 2.894531 0.140625 2.300781 -0.00390625 1.875 -0.296875 C 1.457031 -0.585938 1.160156 -1.015625 0.984375 -1.578125 C 0.816406 -2.148438 0.734375 -2.894531 0.734375 -3.8125 L 0.734375 -6.0625 C 0.734375 -7.4375 0.945312 -8.4375 1.375 -9.0625 C 1.800781 -9.695312 2.5625 -10.015625 3.65625 -10.015625 C 4.457031 -10.015625 5.054688 -9.847656 5.453125 -9.515625 C 5.859375 -9.191406 6.128906 -8.726562 6.265625 -8.125 C 6.398438 -7.53125 6.46875 -6.722656 6.46875 -5.703125 L 6.46875 -4.90625 L 2.5625 -4.90625 L 2.5625 -2.921875 C 2.5625 -2.316406 2.648438 -1.878906 2.828125 -1.609375 C 3.003906 -1.347656 3.285156 -1.21875 3.671875 -1.21875 C 4.054688 -1.21875 4.316406 -1.347656 4.453125 -1.609375 C 4.597656 -1.878906 4.671875 -2.289062 4.671875 -2.84375 L 4.671875 -3.4375 L 6.4375 -3.4375 L 6.4375 -3.0625 C 6.4375 -2.019531 6.210938 -1.222656 5.765625 -0.671875 C 5.328125 -0.128906 4.625 0.140625 3.65625 0.140625 Z M 4.671875 -5.890625 L 4.671875 -6.78125 C 4.671875 -7.457031 4.601562 -7.941406 4.46875 -8.234375 C 4.332031 -8.523438 4.054688 -8.671875 3.640625 -8.671875 C 3.347656 -8.671875 3.125 -8.597656 2.96875 -8.453125 C 2.8125 -8.316406 2.703125 -8.09375 2.640625 -7.78125 C 2.585938 -7.46875 2.5625 -7.015625 2.5625 -6.421875 L 2.5625 -5.890625 Z M 4.671875 -5.890625 "/></g></g></g><g fill="#000000" fill-opacity="1"><g transform="translate(366.36466, 38.924641)"><g><path d="M 0.96875 -9.875 L 2.796875 -9.875 L 2.796875 -8.484375 C 3.140625 -9.035156 3.488281 -9.425781 3.84375 -9.65625 C 4.207031 -9.882812 4.585938 -10 4.984375 -10 C 5.085938 -10 5.1875 -9.992188 5.28125 -9.984375 L 5.28125 -7.96875 C 4.914062 -8.101562 4.578125 -8.171875 4.265625 -8.171875 C 3.972656 -8.171875 3.707031 -8.097656 3.46875 -7.953125 C 3.238281 -7.816406 3.015625 -7.570312 2.796875 -7.21875 L 2.796875 0 L 0.96875 0 Z M 0.96875 -9.875 "/></g></g></g><g fill="#000000" fill-opacity="1"><g transform="translate(371.853006, 38.924641)"><g><path d="M 3.21875 0.140625 C 2.414062 0.140625 1.765625 -0.109375 1.265625 -0.609375 C 0.773438 -1.117188 0.492188 -1.789062 0.421875 -2.625 L 1.953125 -3.09375 C 2.035156 -2.457031 2.1875 -1.984375 2.40625 -1.671875 C 2.632812 -1.367188 2.957031 -1.21875 3.375 -1.21875 C 3.6875 -1.21875 3.929688 -1.3125 4.109375 -1.5 C 4.285156 -1.6875 4.375 -1.9375 4.375 -2.25 C 4.375 -2.539062 4.3125 -2.800781 4.1875 -3.03125 C 4.0625 -3.257812 3.859375 -3.488281 3.578125 -3.71875 L 1.875 -5.171875 C 1.488281 -5.503906 1.191406 -5.851562 0.984375 -6.21875 C 0.773438 -6.59375 0.671875 -7.050781 0.671875 -7.59375 C 0.671875 -8.351562 0.894531 -8.945312 1.34375 -9.375 C 1.800781 -9.800781 2.425781 -10.015625 3.21875 -10.015625 C 3.96875 -10.015625 4.554688 -9.769531 4.984375 -9.28125 C 5.410156 -8.800781 5.65625 -8.179688 5.71875 -7.421875 L 4.5 -6.953125 C 4.414062 -7.515625 4.28125 -7.941406 4.09375 -8.234375 C 3.914062 -8.523438 3.644531 -8.671875 3.28125 -8.671875 C 2.988281 -8.671875 2.753906 -8.570312 2.578125 -8.375 C 2.398438 -8.175781 2.3125 -7.9375 2.3125 -7.65625 C 2.3125 -7.289062 2.472656 -6.960938 2.796875 -6.671875 L 4.546875 -5.0625 C 4.992188 -4.644531 5.335938 -4.238281 5.578125 -3.84375 C 5.828125 -3.445312 5.953125 -2.960938 5.953125 -2.390625 C 5.953125 -1.566406 5.707031 -0.9375 5.21875 -0.5 C 4.726562 -0.0703125 4.0625 0.140625 3.21875 0.140625 Z M 3.21875 0.140625 "/></g></g></g><g fill="#000000" fill-opacity="1"><g transform="translate(307.827526, 62.17464)"><g><path d="M 4.078125 -12.40625 L 0.375 -12.40625 L 0.375 -13.84375 L 5.921875 -13.84375 L 5.921875 -12.953125 L 3.34375 0 L 1.59375 0 Z M 4.078125 -12.40625 "/></g></g></g><g fill="#000000" fill-opacity="1"><g transform="translate(314.427219, 62.17464)"><g><path d="M 0.84375 -2.03125 L 2.671875 -2.03125 L 2.671875 0 L 0.84375 0 Z M 0.84375 -2.03125 "/></g></g></g><g fill="#000000" fill-opacity="1"><g transform="translate(317.641578, 62.17464)"><g><path d="M 4.078125 -12.40625 L 0.375 -12.40625 L 0.375 -13.84375 L 5.921875 -13.84375 L 5.921875 -12.953125 L 3.34375 0 L 1.59375 0 Z M 4.078125 -12.40625 "/></g></g></g><g fill="#000000" fill-opacity="1"><g transform="translate(324.241271, 62.17464)"><g><path d="M 3.296875 -6.5 C 2.378906 -6.5 1.703125 -6.773438 1.265625 -7.328125 C 0.828125 -7.890625 0.609375 -8.679688 0.609375 -9.703125 L 0.609375 -10.78125 C 0.609375 -11.832031 0.816406 -12.625 1.234375 -13.15625 C 1.660156 -13.6875 2.347656 -13.953125 3.296875 -13.953125 C 4.242188 -13.953125 4.925781 -13.691406 5.34375 -13.171875 C 5.769531 -12.660156 5.984375 -11.894531 5.984375 -10.875 L 5.984375 -9.65625 C 5.984375 -8.632812 5.769531 -7.851562 5.34375 -7.3125 C 4.914062 -6.769531 4.234375 -6.5 3.296875 -6.5 Z M 8.75 -13.859375 L 10.328125 -13.859375 L 6.53125 0 L 4.9375 0 Z M 3.296875 -7.875 C 3.691406 -7.875 3.960938 -8.035156 4.109375 -8.359375 C 4.253906 -8.679688 4.328125 -9.113281 4.328125 -9.65625 L 4.328125 -10.875 C 4.328125 -11.414062 4.257812 -11.832031 4.125 -12.125 C 3.988281 -12.414062 3.710938 -12.5625 3.296875 -12.5625 C 2.890625 -12.5625 2.617188 -12.410156 2.484375 -12.109375 C 2.359375 -11.816406 2.296875 -11.398438 2.296875 -10.859375 L 2.296875 -9.640625 C 2.296875 -9.097656 2.363281 -8.664062 2.5 -8.34375 C 2.644531 -8.03125 2.910156 -7.875 3.296875 -7.875 Z M 11.9375 0.078125 C 10.15625 0.078125 9.265625 -0.988281 9.265625 -3.125 L 9.265625 -4.203125 C 9.265625 -5.242188 9.472656 -6.03125 9.890625 -6.5625 C 10.304688 -7.101562 10.988281 -7.375 11.9375 -7.375 C 12.875 -7.375 13.550781 -7.113281 13.96875 -6.59375 C 14.394531 -6.082031 14.609375 -5.304688 14.609375 -4.265625 L 14.609375 -3.078125 C 14.609375 -2.035156 14.394531 -1.25 13.96875 -0.71875 C 13.539062 -0.1875 12.863281 0.078125 11.9375 0.078125 Z M 11.9375 -1.296875 C 12.332031 -1.296875 12.597656 -1.453125 12.734375 -1.765625 C 12.878906 -2.078125 12.953125 -2.507812 12.953125 -3.0625 L 12.953125 -4.296875 C 12.953125 -4.835938 12.882812 -5.253906 12.75 -5.546875 C 12.613281 -5.835938 12.34375 -5.984375 11.9375 -5.984375 C 11.519531 -5.984375 11.242188 -5.832031 11.109375 -5.53125 C 10.984375 -5.238281 10.921875 -4.816406 10.921875 -4.265625 L 10.921875 -3.0625 C 10.921875 -2.507812 10.988281 -2.078125 11.125 -1.765625 C 11.269531 -1.453125 11.539062 -1.296875 11.9375 -1.296875 Z M 11.9375 -1.296875 "/></g></g></g><g clip-path="url(#94e1fb44f6)"><g clip-path="url(#9758dd1e96)"><path fill="#79e0ff" d="M 168 72 L 600 72 L 600 504 L 168 504 Z M 168 72 " fill-opacity="1" fill-rule="nonzero"/></g></g><g clip-path="url(#e94a62cae5)"><g clip-path="url(#222914a6d2)"><path fill="#f15a5a" d="M 168 72 L 600 72 L 600 504 L 168 504 Z M 168 72 " fill-opacity="1" fill-rule="nonzero"/></g></g></svg>