<svg xmlns="http://www.w3.org/2000/svg" xmlns:xlink="http://www.w3.org/1999/xlink" width="800" zoomAndPan="magnify" viewBox="0 0 600 599.999999" height="800" preserveAspectRatio="xMidYMid meet" version="1.0"><defs><clipPath id="f605cd8977"><path d="M 56.230469 56.230469 L 543.730469 56.230469 L 543.730469 543.730469 L 56.230469 543.730469 Z M 56.230469 56.230469 " clip-rule="nonzero"/></clipPath><clipPath id="3b056d0f6d"><path d="M 299.980469 56.230469 C 165.363281 56.230469 56.230469 165.363281 56.230469 299.980469 C 56.230469 434.601562 165.363281 543.730469 299.980469 543.730469 C 434.601562 543.730469 543.730469 434.601562 543.730469 299.980469 C 543.730469 165.363281 434.601562 56.230469 299.980469 56.230469 " clip-rule="nonzero"/></clipPath><clipPath id="e04492ea58"><path d="M 214 347 L 403 347 L 403 471.546875 L 214 471.546875 Z M 214 347 " clip-rule="nonzero"/></clipPath><clipPath id="a48e4fc5e8"><path d="M 187.648438 193 L 369 193 L 369 268 L 187.648438 268 Z M 187.648438 193 " clip-rule="nonzero"/></clipPath><clipPath id="78ecb74eea"><path d="M 214 129 L 412.648438 129 L 412.648438 308 L 214 308 Z M 214 129 " clip-rule="nonzero"/></clipPath></defs><g clip-path="url(#f605cd8977)"><g clip-path="url(#3b056d0f6d)"><path stroke-linecap="butt" transform="matrix(0.749946, 0, 0, 0.749946, 56.231156, 56.231175)" fill="none" stroke-linejoin="miter" d="M 325.022531 -0.000942002 C 145.519999 -0.000942002 -0.000915734 145.519972 -0.000915734 325.022505 C -0.000915734 504.530246 145.519999 650.045952 325.022531 650.045952 C 504.530272 650.045952 650.045978 504.530246 650.045978 325.022505 C 650.045978 145.519972 504.530272 -0.000942002 325.022531 -0.000942002 " stroke="#000000" stroke-width="8" stroke-opacity="1" stroke-miterlimit="4"/></g></g><g clip-path="url(#e04492ea58)"><path fill="#000000" d="M 375.105469 403.289062 L 301.089844 452.71875 L 275.453125 454.089844 L 214.273438 471.148438 L 337.546875 373.394531 L 376.78125 364.941406 L 392.132812 347.539062 L 402.992188 385.011719 L 394.269531 399.976562 Z M 375.105469 403.289062 " fill-opacity="1" fill-rule="evenodd"/></g><path fill="#000000" d="M 269.242188 407.210938 L 268.023438 418.636719 L 211.875 468.179688 L 263.339844 397.804688 Z M 269.242188 407.210938 " fill-opacity="1" fill-rule="evenodd"/><g clip-path="url(#a48e4fc5e8)"><path fill="#000000" d="M 242.691406 197.269531 L 254.347656 194.832031 L 261.472656 196.546875 L 262.691406 193.957031 L 275.949219 193.269531 L 294.042969 197.421875 L 324.328125 205.078125 L 368.210938 222.136719 L 349.773438 223.773438 L 329.585938 212.960938 L 299.261719 209.152344 L 271.070312 205.113281 L 266.539062 204.960938 L 268.445312 211.589844 L 268.445312 218.710938 L 268.976562 226.554688 L 265.664062 235.425781 L 258.882812 243.082031 L 252.0625 246.738281 L 244.40625 246.546875 L 237.96875 244.300781 L 233.28125 241.179688 L 228.40625 234.019531 L 226.847656 228.800781 L 223.683594 226.707031 L 218.464844 230.210938 L 214.464844 235.238281 L 210.808594 242.890625 L 203.339844 250.203125 L 197.589844 257.703125 L 193.742188 267.644531 L 188.867188 260.75 L 189.398438 252.257812 L 187.648438 242.703125 L 188.332031 233.445312 L 191.835938 223.355469 L 198.808594 216.042969 L 210.273438 213.949219 L 219.152344 214.140625 L 222.65625 215.359375 L 228.066406 214.671875 L 229.09375 211.359375 L 232.214844 205.078125 L 237.4375 202.488281 Z M 242.691406 197.269531 " fill-opacity="1" fill-rule="evenodd"/></g><path fill="#000000" d="M 364.554688 244.035156 L 366.914062 237.941406 L 373.847656 230.589844 L 386 233.332031 L 387.449219 247.996094 L 382.953125 255.878906 C 382.6875 262.160156 382.570312 265.894531 382.535156 267.074219 L 373.429688 279.070312 L 364.363281 282.726562 L 355.984375 277.242188 L 356.363281 269.167969 L 367.183594 262.617188 L 376.097656 262.617188 L 377.238281 251.078125 L 372.097656 248.792969 L 369.8125 253.667969 Z M 364.554688 244.035156 " fill-opacity="1" fill-rule="evenodd"/><path fill="#000000" d="M 348.480469 238.4375 L 343.488281 295.976562 C 344.820312 295.0625 343.566406 302.375 339.679688 317.910156 L 325.050781 329.03125 L 315.640625 344 L 302.421875 351.652344 L 293.011719 362.808594 L 276.976562 367.34375 L 262.691406 376.367188 L 245.96875 379.871094 L 233.089844 379.527344 L 219.871094 376.367188 L 210.121094 367 L 202.082031 354.433594 L 201.398438 339.46875 L 208.367188 330.441406 L 213.929688 321.035156 L 220.558594 316.847656 L 227.875 316.160156 L 235.871094 322.785156 L 246.5 316.847656 L 244.9375 307.289062 L 240.9375 299.632812 L 228.558594 294.226562 L 215.683594 294.566406 L 209.589844 301.003906 L 204.523438 311.972656 L 200.863281 300.128906 L 204.027344 289.695312 L 213.054688 281.164062 L 220.371094 277.507812 L 229.433594 276.289062 L 241.96875 279.945312 L 248.328125 286.113281 L 253.738281 289.273438 L 258.957031 298.300781 L 262.425781 312.238281 L 271.492188 322.328125 L 287.527344 325.832031 L 307.375 315.359375 L 322.347656 295.175781 L 334.539062 289.960938 Z M 348.480469 238.4375 " fill-opacity="1" fill-rule="evenodd"/><path fill="#000000" d="M 224.558594 263.1875 L 228.941406 267.984375 L 224.292969 267.984375 C 221.929688 269.394531 220.558594 270.269531 220.101562 270.613281 L 216.636719 270.765625 L 214.691406 272.707031 L 214.082031 275.144531 L 210.425781 274.230469 L 208.292969 272.519531 L 207.605469 268.9375 L 210.121094 264.597656 L 216.632812 262.503906 Z M 224.558594 263.1875 " fill-opacity="1" fill-rule="evenodd"/><g clip-path="url(#78ecb74eea)"><path fill="#000000" d="M 233.816406 163.53125 L 234.503906 168.859375 L 225.167969 176.933594 L 214.386719 203.742188 L 227.265625 177.808594 L 237.015625 169.8125 L 236.367188 163.722656 L 249.128906 149.933594 L 263.339844 142.394531 L 280.9375 135.082031 L 298.234375 131.960938 L 314.117188 131.3125 L 330.308594 132.875 L 347.449219 137.902344 L 363.410156 145.515625 L 379.105469 157.550781 L 395.449219 177.085938 L 408.550781 207.359375 L 410.800781 235.425781 L 405.238281 263.226562 C 405.542969 263.378906 400.363281 273.738281 389.617188 294.300781 L 379.296875 307.398438 L 390.417969 294.679688 L 407.105469 263.226562 L 412.628906 235.160156 L 410.53125 206.597656 L 397.011719 175.867188 L 379.945312 155.761719 L 364.324219 143.992188 L 347.945312 136.1875 L 330.574219 130.78125 L 313.660156 129.179688 L 297.625 129.714844 L 279.222656 133.292969 L 261.246094 141.214844 L 246.691406 149.175781 Z M 233.816406 163.53125 " fill-opacity="1" fill-rule="evenodd"/></g><path fill="#000000" d="M 272.136719 222.214844 C 299.527344 217.757812 314.042969 214.027344 314.042969 214.027344 C 314.042969 214.027344 298.957031 211.207031 269.890625 206.90625 C 269.890625 206.90625 270.84375 208.734375 271.835938 211.359375 C 272.0625 215.433594 272.023438 220.003906 272.136719 222.214844 Z M 272.136719 222.214844 " fill-opacity="1" fill-rule="evenodd"/><path fill="#000000" d="M 380.933594 349.9375 C 381.695312 349.863281 382.078125 349.824219 382.078125 349.824219 C 382.078125 349.824219 377.238281 335.925781 367.5625 308.125 C 376.476562 336 380.933594 349.9375 380.933594 349.9375 Z M 380.933594 349.9375 " fill-opacity="1" fill-rule="evenodd"/></svg>