<svg xmlns="http://www.w3.org/2000/svg" xmlns:xlink="http://www.w3.org/1999/xlink" width="1024" zoomAndPan="magnify" viewBox="0 0 768 576" height="768" preserveAspectRatio="xMidYMid meet" version="1.0"><defs><g/><clipPath id="e7241de39f"><path d="M 283.199219 72 L 600 72 L 600 504 L 283.199219 504 Z M 283.199219 72 " clip-rule="nonzero"/></clipPath><clipPath id="12c34d725b"><path d="M 384 72 C 473.75 72 554.148438 127.5 585.96875 211.421875 C 617.789062 295.339844 594.398438 390.195312 527.210938 449.699219 C 460.023438 509.203125 363.039062 520.964844 283.578125 479.238281 L 384 288 L 384 72 " clip-rule="nonzero"/></clipPath><clipPath id="72ba5f8df3"><path d="M 168 72 L 384 72 L 384 484.558594 L 168 484.558594 Z M 168 72 " clip-rule="nonzero"/></clipPath><clipPath id="1045ac8e62"><path d="M 293.261719 484.015625 C 201.253906 441.425781 151.25 340.570312 173.050781 241.554688 C 194.855469 142.539062 282.589844 72.011719 383.976562 72 L 384 288 L 293.261719 484.015625 " clip-rule="nonzero"/></clipPath></defs><g fill="#000000" fill-opacity="1"><g transform="translate(630.026284, 337.67986)"><g><path d="M 1.296875 -13.84375 L 3.203125 -13.84375 L 5.640625 -2.609375 L 8.109375 -13.84375 L 9.984375 -13.84375 L 10.234375 0 L 8.6875 0 L 8.53125 -10.046875 L 6.1875 0 L 5.09375 0 L 2.765625 -10.046875 L 2.609375 0 L 1.046875 0 Z M 1.296875 -13.84375 "/></g></g></g><g fill="#000000" fill-opacity="1"><g transform="translate(641.310731, 337.67986)"><g><path d="M 3.640625 0.140625 C 2.585938 0.140625 1.84375 -0.164062 1.40625 -0.78125 C 0.96875 -1.40625 0.75 -2.3125 0.75 -3.5 L 0.75 -6.375 C 0.75 -7.5625 0.96875 -8.460938 1.40625 -9.078125 C 1.84375 -9.703125 2.585938 -10.015625 3.640625 -10.015625 C 4.679688 -10.015625 5.421875 -9.703125 5.859375 -9.078125 C 6.296875 -8.460938 6.515625 -7.5625 6.515625 -6.375 L 6.515625 -3.5 C 6.515625 -2.3125 6.296875 -1.40625 5.859375 -0.78125 C 5.421875 -0.164062 4.679688 0.140625 3.640625 0.140625 Z M 3.640625 -1.21875 C 3.972656 -1.21875 4.210938 -1.3125 4.359375 -1.5 C 4.503906 -1.695312 4.59375 -1.9375 4.625 -2.21875 C 4.664062 -2.507812 4.6875 -2.898438 4.6875 -3.390625 L 4.6875 -6.484375 C 4.6875 -6.972656 4.664062 -7.359375 4.625 -7.640625 C 4.59375 -7.929688 4.503906 -8.175781 4.359375 -8.375 C 4.210938 -8.570312 3.972656 -8.671875 3.640625 -8.671875 C 3.304688 -8.671875 3.0625 -8.570312 2.90625 -8.375 C 2.757812 -8.175781 2.664062 -7.929688 2.625 -7.640625 C 2.59375 -7.359375 2.578125 -6.972656 2.578125 -6.484375 L 2.578125 -3.390625 C 2.578125 -2.898438 2.59375 -2.507812 2.625 -2.21875 C 2.664062 -1.9375 2.757812 -1.695312 2.90625 -1.5 C 3.0625 -1.3125 3.304688 -1.21875 3.640625 -1.21875 Z M 3.640625 -1.21875 "/></g></g></g><g fill="#000000" fill-opacity="1"><g transform="translate(648.577237, 337.67986)"><g><path d="M 4.46875 0.140625 C 3.875 0.140625 3.3125 -0.144531 2.78125 -0.71875 L 2.78125 0 L 0.953125 0 L 0.953125 -13.84375 L 2.78125 -13.84375 L 2.78125 -9.09375 C 3.320312 -9.707031 3.945312 -10.015625 4.65625 -10.015625 C 5.550781 -10.015625 6.148438 -9.628906 6.453125 -8.859375 C 6.753906 -8.085938 6.90625 -7.238281 6.90625 -6.3125 L 6.90625 -3.921875 C 6.90625 -1.210938 6.09375 0.140625 4.46875 0.140625 Z M 4.078125 -1.296875 C 4.503906 -1.296875 4.773438 -1.507812 4.890625 -1.9375 C 5.015625 -2.363281 5.078125 -3.023438 5.078125 -3.921875 L 5.078125 -6.3125 C 5.078125 -7.039062 5.007812 -7.597656 4.875 -7.984375 C 4.738281 -8.378906 4.453125 -8.578125 4.015625 -8.578125 C 3.617188 -8.578125 3.207031 -8.410156 2.78125 -8.078125 L 2.78125 -1.75 C 3.15625 -1.445312 3.585938 -1.296875 4.078125 -1.296875 Z M 4.078125 -1.296875 "/></g></g></g><g fill="#000000" fill-opacity="1"><g transform="translate(656.219887, 337.67986)"><g><path d="M 1.046875 -13.265625 L 2.875 -13.265625 L 2.875 -11.34375 L 1.046875 -11.34375 Z M 1.046875 -9.875 L 2.875 -9.875 L 2.875 0 L 1.046875 0 Z M 1.046875 -9.875 "/></g></g></g><g fill="#000000" fill-opacity="1"><g transform="translate(660.135254, 337.67986)"><g><path d="M 1.09375 -13.84375 L 2.921875 -13.84375 L 2.921875 0 L 1.09375 0 Z M 1.09375 -13.84375 "/></g></g></g><g fill="#000000" fill-opacity="1"><g transform="translate(664.050621, 337.67986)"><g><path d="M 3.65625 0.140625 C 2.894531 0.140625 2.300781 -0.00390625 1.875 -0.296875 C 1.457031 -0.585938 1.160156 -1.015625 0.984375 -1.578125 C 0.816406 -2.148438 0.734375 -2.894531 0.734375 -3.8125 L 0.734375 -6.0625 C 0.734375 -7.4375 0.945312 -8.4375 1.375 -9.0625 C 1.800781 -9.695312 2.5625 -10.015625 3.65625 -10.015625 C 4.457031 -10.015625 5.054688 -9.847656 5.453125 -9.515625 C 5.859375 -9.191406 6.128906 -8.726562 6.265625 -8.125 C 6.398438 -7.53125 6.46875 -6.722656 6.46875 -5.703125 L 6.46875 -4.90625 L 2.5625 -4.90625 L 2.5625 -2.921875 C 2.5625 -2.316406 2.648438 -1.878906 2.828125 -1.609375 C 3.003906 -1.347656 3.285156 -1.21875 3.671875 -1.21875 C 4.054688 -1.21875 4.316406 -1.347656 4.453125 -1.609375 C 4.597656 -1.878906 4.671875 -2.289062 4.671875 -2.84375 L 4.671875 -3.4375 L 6.4375 -3.4375 L 6.4375 -3.0625 C 6.4375 -2.019531 6.210938 -1.222656 5.765625 -0.671875 C 5.328125 -0.128906 4.625 0.140625 3.65625 0.140625 Z M 4.671875 -5.890625 L 4.671875 -6.78125 C 4.671875 -7.457031 4.601562 -7.941406 4.46875 -8.234375 C 4.332031 -8.523438 4.054688 -8.671875 3.640625 -8.671875 C 3.347656 -8.671875 3.125 -8.597656 2.96875 -8.453125 C 2.8125 -8.316406 2.703125 -8.09375 2.640625 -7.78125 C 2.585938 -7.46875 2.5625 -7.015625 2.5625 -6.421875 L 2.5625 -5.890625 Z M 4.671875 -5.890625 "/></g></g></g><g fill="#000000" fill-opacity="1"><g transform="translate(671.248737, 337.67986)"><g/></g></g><g fill="#000000" fill-opacity="1"><g transform="translate(675.164104, 337.67986)"><g><path d="M 4.65625 0.15625 C 3.6875 0.15625 2.929688 -0.0351562 2.390625 -0.421875 C 1.847656 -0.816406 1.472656 -1.359375 1.265625 -2.046875 C 1.054688 -2.742188 0.953125 -3.617188 0.953125 -4.671875 L 0.953125 -13.84375 L 2.796875 -13.84375 L 2.796875 -4.578125 C 2.796875 -3.535156 2.914062 -2.738281 3.15625 -2.1875 C 3.40625 -1.644531 3.90625 -1.375 4.65625 -1.375 C 5.394531 -1.375 5.882812 -1.644531 6.125 -2.1875 C 6.375 -2.738281 6.5 -3.535156 6.5 -4.578125 L 6.5 -13.84375 L 8.328125 -13.84375 L 8.328125 -4.671875 C 8.328125 -3.617188 8.222656 -2.742188 8.015625 -2.046875 C 7.804688 -1.359375 7.4375 -0.816406 6.90625 -0.421875 C 6.375 -0.0351562 5.625 0.15625 4.65625 0.15625 Z M 4.65625 0.15625 "/></g></g></g><g fill="#000000" fill-opacity="1"><g transform="translate(684.448123, 337.67986)"><g><path d="M 3.21875 0.140625 C 2.414062 0.140625 1.765625 -0.109375 1.265625 -0.609375 C 0.773438 -1.117188 0.492188 -1.789062 0.421875 -2.625 L 1.953125 -3.09375 C 2.035156 -2.457031 2.1875 -1.984375 2.40625 -1.671875 C 2.632812 -1.367188 2.957031 -1.21875 3.375 -1.21875 C 3.6875 -1.21875 3.929688 -1.3125 4.109375 -1.5 C 4.285156 -1.6875 4.375 -1.9375 4.375 -2.25 C 4.375 -2.539062 4.3125 -2.800781 4.1875 -3.03125 C 4.0625 -3.257812 3.859375 -3.488281 3.578125 -3.71875 L 1.875 -5.171875 C 1.488281 -5.503906 1.191406 -5.851562 0.984375 -6.21875 C 0.773438 -6.59375 0.671875 -7.050781 0.671875 -7.59375 C 0.671875 -8.351562 0.894531 -8.945312 1.34375 -9.375 C 1.800781 -9.800781 2.425781 -10.015625 3.21875 -10.015625 C 3.96875 -10.015625 4.554688 -9.769531 4.984375 -9.28125 C 5.410156 -8.800781 5.65625 -8.179688 5.71875 -7.421875 L 4.5 -6.953125 C 4.414062 -7.515625 4.28125 -7.941406 4.09375 -8.234375 C 3.914062 -8.523438 3.644531 -8.671875 3.28125 -8.671875 C 2.988281 -8.671875 2.753906 -8.570312 2.578125 -8.375 C 2.398438 -8.175781 2.3125 -7.9375 2.3125 -7.65625 C 2.3125 -7.289062 2.472656 -6.960938 2.796875 -6.671875 L 4.546875 -5.0625 C 4.992188 -4.644531 5.335938 -4.238281 5.578125 -3.84375 C 5.828125 -3.445312 5.953125 -2.960938 5.953125 -2.390625 C 5.953125 -1.566406 5.707031 -0.9375 5.21875 -0.5 C 4.726562 -0.0703125 4.0625 0.140625 3.21875 0.140625 Z M 3.21875 0.140625 "/></g></g></g><g fill="#000000" fill-opacity="1"><g transform="translate(690.842646, 337.67986)"><g><path d="M 3.65625 0.140625 C 2.894531 0.140625 2.300781 -0.00390625 1.875 -0.296875 C 1.457031 -0.585938 1.160156 -1.015625 0.984375 -1.578125 C 0.816406 -2.148438 0.734375 -2.894531 0.734375 -3.8125 L 0.734375 -6.0625 C 0.734375 -7.4375 0.945312 -8.4375 1.375 -9.0625 C 1.800781 -9.695312 2.5625 -10.015625 3.65625 -10.015625 C 4.457031 -10.015625 5.054688 -9.847656 5.453125 -9.515625 C 5.859375 -9.191406 6.128906 -8.726562 6.265625 -8.125 C 6.398438 -7.53125 6.46875 -6.722656 6.46875 -5.703125 L 6.46875 -4.90625 L 2.5625 -4.90625 L 2.5625 -2.921875 C 2.5625 -2.316406 2.648438 -1.878906 2.828125 -1.609375 C 3.003906 -1.347656 3.285156 -1.21875 3.671875 -1.21875 C 4.054688 -1.21875 4.316406 -1.347656 4.453125 -1.609375 C 4.597656 -1.878906 4.671875 -2.289062 4.671875 -2.84375 L 4.671875 -3.4375 L 6.4375 -3.4375 L 6.4375 -3.0625 C 6.4375 -2.019531 6.210938 -1.222656 5.765625 -0.671875 C 5.328125 -0.128906 4.625 0.140625 3.65625 0.140625 Z M 4.671875 -5.890625 L 4.671875 -6.78125 C 4.671875 -7.457031 4.601562 -7.941406 4.46875 -8.234375 C 4.332031 -8.523438 4.054688 -8.671875 3.640625 -8.671875 C 3.347656 -8.671875 3.125 -8.597656 2.96875 -8.453125 C 2.8125 -8.316406 2.703125 -8.09375 2.640625 -7.78125 C 2.585938 -7.46875 2.5625 -7.015625 2.5625 -6.421875 L 2.5625 -5.890625 Z M 4.671875 -5.890625 "/></g></g></g><g fill="#000000" fill-opacity="1"><g transform="translate(698.040762, 337.67986)"><g><path d="M 0.96875 -9.875 L 2.796875 -9.875 L 2.796875 -8.484375 C 3.140625 -9.035156 3.488281 -9.425781 3.84375 -9.65625 C 4.207031 -9.882812 4.585938 -10 4.984375 -10 C 5.085938 -10 5.1875 -9.992188 5.28125 -9.984375 L 5.28125 -7.96875 C 4.914062 -8.101562 4.578125 -8.171875 4.265625 -8.171875 C 3.972656 -8.171875 3.707031 -8.097656 3.46875 -7.953125 C 3.238281 -7.816406 3.015625 -7.570312 2.796875 -7.21875 L 2.796875 0 L 0.96875 0 Z M 0.96875 -9.875 "/></g></g></g><g fill="#000000" fill-opacity="1"><g transform="translate(703.529108, 337.67986)"><g><path d="M 3.21875 0.140625 C 2.414062 0.140625 1.765625 -0.109375 1.265625 -0.609375 C 0.773438 -1.117188 0.492188 -1.789062 0.421875 -2.625 L 1.953125 -3.09375 C 2.035156 -2.457031 2.1875 -1.984375 2.40625 -1.671875 C 2.632812 -1.367188 2.957031 -1.21875 3.375 -1.21875 C 3.6875 -1.21875 3.929688 -1.3125 4.109375 -1.5 C 4.285156 -1.6875 4.375 -1.9375 4.375 -2.25 C 4.375 -2.539062 4.3125 -2.800781 4.1875 -3.03125 C 4.0625 -3.257812 3.859375 -3.488281 3.578125 -3.71875 L 1.875 -5.171875 C 1.488281 -5.503906 1.191406 -5.851562 0.984375 -6.21875 C 0.773438 -6.59375 0.671875 -7.050781 0.671875 -7.59375 C 0.671875 -8.351562 0.894531 -8.945312 1.34375 -9.375 C 1.800781 -9.800781 2.425781 -10.015625 3.21875 -10.015625 C 3.96875 -10.015625 4.554688 -9.769531 4.984375 -9.28125 C 5.410156 -8.800781 5.65625 -8.179688 5.71875 -7.421875 L 4.5 -6.953125 C 4.414062 -7.515625 4.28125 -7.941406 4.09375 -8.234375 C 3.914062 -8.523438 3.644531 -8.671875 3.28125 -8.671875 C 2.988281 -8.671875 2.753906 -8.570312 2.578125 -8.375 C 2.398438 -8.175781 2.3125 -7.9375 2.3125 -7.65625 C 2.3125 -7.289062 2.472656 -6.960938 2.796875 -6.671875 L 4.546875 -5.0625 C 4.992188 -4.644531 5.335938 -4.238281 5.578125 -3.84375 C 5.828125 -3.445312 5.953125 -2.960938 5.953125 -2.390625 C 5.953125 -1.566406 5.707031 -0.9375 5.21875 -0.5 C 4.726562 -0.0703125 4.0625 0.140625 3.21875 0.140625 Z M 3.21875 0.140625 "/></g></g></g><g fill="#000000" fill-opacity="1"><g transform="translate(648.084877, 360.929859)"><g><path d="M 4.15625 0.140625 C 2.957031 0.140625 2.097656 -0.195312 1.578125 -0.875 C 1.054688 -1.550781 0.796875 -2.550781 0.796875 -3.875 L 2.625 -3.875 C 2.625 -3.101562 2.726562 -2.484375 2.9375 -2.015625 C 3.15625 -1.546875 3.570312 -1.3125 4.1875 -1.3125 C 4.65625 -1.3125 5.003906 -1.445312 5.234375 -1.71875 C 5.460938 -2 5.609375 -2.363281 5.671875 -2.8125 C 5.734375 -3.257812 5.765625 -3.859375 5.765625 -4.609375 C 5.765625 -5.304688 5.722656 -5.863281 5.640625 -6.28125 C 5.566406 -6.695312 5.421875 -7.015625 5.203125 -7.234375 C 4.984375 -7.460938 4.648438 -7.578125 4.203125 -7.578125 C 3.847656 -7.578125 3.535156 -7.46875 3.265625 -7.25 C 3.003906 -7.03125 2.804688 -6.753906 2.671875 -6.421875 L 1.109375 -6.421875 L 1.109375 -13.84375 L 7.078125 -13.84375 L 7.078125 -12.015625 L 2.765625 -12.015625 L 2.65625 -8.1875 C 3.144531 -8.695312 3.8125 -8.953125 4.65625 -8.953125 C 5.707031 -8.953125 6.457031 -8.585938 6.90625 -7.859375 C 7.363281 -7.140625 7.59375 -6.140625 7.59375 -4.859375 C 7.59375 -3.285156 7.332031 -2.054688 6.8125 -1.171875 C 6.300781 -0.296875 5.414062 0.140625 4.15625 0.140625 Z M 4.15625 0.140625 "/></g></g></g><g fill="#000000" fill-opacity="1"><g transform="translate(656.223354, 360.929859)"><g><path d="M 4.390625 0.15625 C 3.253906 0.15625 2.398438 -0.257812 1.828125 -1.09375 C 1.265625 -1.9375 0.984375 -3.035156 0.984375 -4.390625 L 0.984375 -9.0625 C 0.984375 -10.550781 1.242188 -11.738281 1.765625 -12.625 C 2.296875 -13.519531 3.171875 -13.96875 4.390625 -13.96875 C 5.460938 -13.96875 6.289062 -13.675781 6.875 -13.09375 C 7.457031 -12.507812 7.757812 -11.675781 7.78125 -10.59375 L 7.796875 -10.390625 L 5.953125 -10.390625 C 5.953125 -11.097656 5.835938 -11.617188 5.609375 -11.953125 C 5.378906 -12.296875 4.972656 -12.46875 4.390625 -12.46875 C 3.347656 -12.46875 2.828125 -11.476562 2.828125 -9.5 L 2.828125 -7.40625 C 3.003906 -7.695312 3.265625 -7.925781 3.609375 -8.09375 C 3.960938 -8.269531 4.375 -8.359375 4.84375 -8.359375 C 5.925781 -8.359375 6.691406 -8.015625 7.140625 -7.328125 C 7.597656 -6.640625 7.828125 -5.648438 7.828125 -4.359375 C 7.828125 -3.003906 7.546875 -1.910156 6.984375 -1.078125 C 6.429688 -0.253906 5.566406 0.15625 4.390625 0.15625 Z M 4.390625 -1.375 C 4.960938 -1.375 5.367188 -1.601562 5.609375 -2.0625 C 5.859375 -2.53125 5.984375 -3.148438 5.984375 -3.921875 C 5.984375 -4.609375 5.953125 -5.15625 5.890625 -5.5625 C 5.835938 -5.976562 5.695312 -6.316406 5.46875 -6.578125 C 5.238281 -6.835938 4.878906 -6.96875 4.390625 -6.96875 C 4.035156 -6.96875 3.722656 -6.875 3.453125 -6.6875 C 3.191406 -6.507812 2.984375 -6.289062 2.828125 -6.03125 L 2.828125 -3.96875 C 2.828125 -3.175781 2.945312 -2.546875 3.1875 -2.078125 C 3.4375 -1.609375 3.835938 -1.375 4.390625 -1.375 Z M 4.390625 -1.375 "/></g></g></g><g fill="#000000" fill-opacity="1"><g transform="translate(664.823475, 360.929859)"><g><path d="M 0.84375 -2.03125 L 2.671875 -2.03125 L 2.671875 0 L 0.84375 0 Z M 0.84375 -2.03125 "/></g></g></g><g fill="#000000" fill-opacity="1"><g transform="translate(668.037834, 360.929859)"><g><path d="M 4.1875 0.15625 C 3.101562 0.15625 2.269531 -0.140625 1.6875 -0.734375 C 1.113281 -1.328125 0.8125 -2.175781 0.78125 -3.28125 L 0.78125 -3.4375 L 2.609375 -3.4375 C 2.609375 -2.726562 2.722656 -2.207031 2.953125 -1.875 C 3.191406 -1.539062 3.609375 -1.375 4.203125 -1.375 C 5.234375 -1.375 5.75 -2.359375 5.75 -4.328125 L 5.75 -6.421875 C 5.5625 -6.128906 5.300781 -5.894531 4.96875 -5.71875 C 4.632812 -5.550781 4.21875 -5.46875 3.71875 -5.46875 C 2.644531 -5.46875 1.878906 -5.8125 1.421875 -6.5 C 0.972656 -7.1875 0.75 -8.175781 0.75 -9.46875 C 0.75 -10.820312 1.023438 -11.910156 1.578125 -12.734375 C 2.140625 -13.554688 3.007812 -13.96875 4.1875 -13.96875 C 5.320312 -13.96875 6.171875 -13.546875 6.734375 -12.703125 C 7.304688 -11.867188 7.59375 -10.78125 7.59375 -9.4375 L 7.59375 -4.78125 C 7.59375 -3.289062 7.328125 -2.09375 6.796875 -1.1875 C 6.273438 -0.289062 5.40625 0.15625 4.1875 0.15625 Z M 4.1875 -6.859375 C 4.863281 -6.859375 5.382812 -7.175781 5.75 -7.8125 L 5.75 -9.859375 C 5.75 -11.597656 5.226562 -12.46875 4.1875 -12.46875 C 3.613281 -12.46875 3.203125 -12.226562 2.953125 -11.75 C 2.710938 -11.28125 2.59375 -10.671875 2.59375 -9.921875 C 2.59375 -9.222656 2.617188 -8.664062 2.671875 -8.25 C 2.734375 -7.84375 2.878906 -7.507812 3.109375 -7.25 C 3.335938 -6.988281 3.695312 -6.859375 4.1875 -6.859375 Z M 4.1875 -6.859375 "/></g></g></g><g fill="#000000" fill-opacity="1"><g transform="translate(676.620857, 360.929859)"><g><path d="M 3.296875 -6.5 C 2.378906 -6.5 1.703125 -6.773438 1.265625 -7.328125 C 0.828125 -7.890625 0.609375 -8.679688 0.609375 -9.703125 L 0.609375 -10.78125 C 0.609375 -11.832031 0.816406 -12.625 1.234375 -13.15625 C 1.660156 -13.6875 2.347656 -13.953125 3.296875 -13.953125 C 4.242188 -13.953125 4.925781 -13.691406 5.34375 -13.171875 C 5.769531 -12.660156 5.984375 -11.894531 5.984375 -10.875 L 5.984375 -9.65625 C 5.984375 -8.632812 5.769531 -7.851562 5.34375 -7.3125 C 4.914062 -6.769531 4.234375 -6.5 3.296875 -6.5 Z M 8.75 -13.859375 L 10.328125 -13.859375 L 6.53125 0 L 4.9375 0 Z M 3.296875 -7.875 C 3.691406 -7.875 3.960938 -8.035156 4.109375 -8.359375 C 4.253906 -8.679688 4.328125 -9.113281 4.328125 -9.65625 L 4.328125 -10.875 C 4.328125 -11.414062 4.257812 -11.832031 4.125 -12.125 C 3.988281 -12.414062 3.710938 -12.5625 3.296875 -12.5625 C 2.890625 -12.5625 2.617188 -12.410156 2.484375 -12.109375 C 2.359375 -11.816406 2.296875 -11.398438 2.296875 -10.859375 L 2.296875 -9.640625 C 2.296875 -9.097656 2.363281 -8.664062 2.5 -8.34375 C 2.644531 -8.03125 2.910156 -7.875 3.296875 -7.875 Z M 11.9375 0.078125 C 10.15625 0.078125 9.265625 -0.988281 9.265625 -3.125 L 9.265625 -4.203125 C 9.265625 -5.242188 9.472656 -6.03125 9.890625 -6.5625 C 10.304688 -7.101562 10.988281 -7.375 11.9375 -7.375 C 12.875 -7.375 13.550781 -7.113281 13.96875 -6.59375 C 14.394531 -6.082031 14.609375 -5.304688 14.609375 -4.265625 L 14.609375 -3.078125 C 14.609375 -2.035156 14.394531 -1.25 13.96875 -0.71875 C 13.539062 -0.1875 12.863281 0.078125 11.9375 0.078125 Z M 11.9375 -1.296875 C 12.332031 -1.296875 12.597656 -1.453125 12.734375 -1.765625 C 12.878906 -2.078125 12.953125 -2.507812 12.953125 -3.0625 L 12.953125 -4.296875 C 12.953125 -4.835938 12.882812 -5.253906 12.75 -5.546875 C 12.613281 -5.835938 12.34375 -5.984375 11.9375 -5.984375 C 11.519531 -5.984375 11.242188 -5.832031 11.109375 -5.53125 C 10.984375 -5.238281 10.921875 -4.816406 10.921875 -4.265625 L 10.921875 -3.0625 C 10.921875 -2.507812 10.988281 -2.078125 11.125 -1.765625 C 11.269531 -1.453125 11.539062 -1.296875 11.9375 -1.296875 Z M 11.9375 -1.296875 "/></g></g></g><g fill="#000000" fill-opacity="1"><g transform="translate(28.787723, 229.320157)"><g><path d="M 1.078125 -13.84375 L 2.390625 -13.84375 L 6.328125 -4.65625 L 6.328125 -13.84375 L 7.9375 -13.84375 L 7.9375 0 L 6.703125 0 L 2.71875 -9.453125 L 2.71875 0 L 1.078125 0 Z M 1.078125 -13.84375 "/></g></g></g><g fill="#000000" fill-opacity="1"><g transform="translate(37.81528, 229.320157)"><g><path d="M 3.640625 0.140625 C 2.585938 0.140625 1.84375 -0.164062 1.40625 -0.78125 C 0.96875 -1.40625 0.75 -2.3125 0.75 -3.5 L 0.75 -6.375 C 0.75 -7.5625 0.96875 -8.460938 1.40625 -9.078125 C 1.84375 -9.703125 2.585938 -10.015625 3.640625 -10.015625 C 4.679688 -10.015625 5.421875 -9.703125 5.859375 -9.078125 C 6.296875 -8.460938 6.515625 -7.5625 6.515625 -6.375 L 6.515625 -3.5 C 6.515625 -2.3125 6.296875 -1.40625 5.859375 -0.78125 C 5.421875 -0.164062 4.679688 0.140625 3.640625 0.140625 Z M 3.640625 -1.21875 C 3.972656 -1.21875 4.210938 -1.3125 4.359375 -1.5 C 4.503906 -1.695312 4.59375 -1.9375 4.625 -2.21875 C 4.664062 -2.507812 4.6875 -2.898438 4.6875 -3.390625 L 4.6875 -6.484375 C 4.6875 -6.972656 4.664062 -7.359375 4.625 -7.640625 C 4.59375 -7.929688 4.503906 -8.175781 4.359375 -8.375 C 4.210938 -8.570312 3.972656 -8.671875 3.640625 -8.671875 C 3.304688 -8.671875 3.0625 -8.570312 2.90625 -8.375 C 2.757812 -8.175781 2.664062 -7.929688 2.625 -7.640625 C 2.59375 -7.359375 2.578125 -6.972656 2.578125 -6.484375 L 2.578125 -3.390625 C 2.578125 -2.898438 2.59375 -2.507812 2.625 -2.21875 C 2.664062 -1.9375 2.757812 -1.695312 2.90625 -1.5 C 3.0625 -1.3125 3.304688 -1.21875 3.640625 -1.21875 Z M 3.640625 -1.21875 "/></g></g></g><g fill="#000000" fill-opacity="1"><g transform="translate(45.081786, 229.320157)"><g><path d="M 0.921875 -9.875 L 2.75 -9.875 L 2.75 -8.90625 C 3.539062 -9.644531 4.34375 -10.015625 5.15625 -10.015625 C 5.695312 -10.015625 6.082031 -9.820312 6.3125 -9.4375 C 6.539062 -9.050781 6.65625 -8.570312 6.65625 -8 L 6.65625 0 L 4.828125 0 L 4.828125 -7.46875 C 4.828125 -7.84375 4.769531 -8.117188 4.65625 -8.296875 C 4.539062 -8.484375 4.332031 -8.578125 4.03125 -8.578125 C 3.664062 -8.578125 3.238281 -8.375 2.75 -7.96875 L 2.75 0 L 0.921875 0 Z M 0.921875 -9.875 "/></g></g></g><g fill="#000000" fill-opacity="1"><g transform="translate(52.587657, 229.320157)"><g><path d="M 0.84375 -5.84375 L 4.65625 -5.84375 L 4.65625 -4.46875 L 0.84375 -4.46875 Z M 0.84375 -5.84375 "/></g></g></g><g fill="#000000" fill-opacity="1"><g transform="translate(58.076003, 229.320157)"><g><path d="M 1.296875 -13.84375 L 3.203125 -13.84375 L 5.640625 -2.609375 L 8.109375 -13.84375 L 9.984375 -13.84375 L 10.234375 0 L 8.6875 0 L 8.53125 -10.046875 L 6.1875 0 L 5.09375 0 L 2.765625 -10.046875 L 2.609375 0 L 1.046875 0 Z M 1.296875 -13.84375 "/></g></g></g><g fill="#000000" fill-opacity="1"><g transform="translate(69.360449, 229.320157)"><g><path d="M 3.640625 0.140625 C 2.585938 0.140625 1.84375 -0.164062 1.40625 -0.78125 C 0.96875 -1.40625 0.75 -2.3125 0.75 -3.5 L 0.75 -6.375 C 0.75 -7.5625 0.96875 -8.460938 1.40625 -9.078125 C 1.84375 -9.703125 2.585938 -10.015625 3.640625 -10.015625 C 4.679688 -10.015625 5.421875 -9.703125 5.859375 -9.078125 C 6.296875 -8.460938 6.515625 -7.5625 6.515625 -6.375 L 6.515625 -3.5 C 6.515625 -2.3125 6.296875 -1.40625 5.859375 -0.78125 C 5.421875 -0.164062 4.679688 0.140625 3.640625 0.140625 Z M 3.640625 -1.21875 C 3.972656 -1.21875 4.210938 -1.3125 4.359375 -1.5 C 4.503906 -1.695312 4.59375 -1.9375 4.625 -2.21875 C 4.664062 -2.507812 4.6875 -2.898438 4.6875 -3.390625 L 4.6875 -6.484375 C 4.6875 -6.972656 4.664062 -7.359375 4.625 -7.640625 C 4.59375 -7.929688 4.503906 -8.175781 4.359375 -8.375 C 4.210938 -8.570312 3.972656 -8.671875 3.640625 -8.671875 C 3.304688 -8.671875 3.0625 -8.570312 2.90625 -8.375 C 2.757812 -8.175781 2.664062 -7.929688 2.625 -7.640625 C 2.59375 -7.359375 2.578125 -6.972656 2.578125 -6.484375 L 2.578125 -3.390625 C 2.578125 -2.898438 2.59375 -2.507812 2.625 -2.21875 C 2.664062 -1.9375 2.757812 -1.695312 2.90625 -1.5 C 3.0625 -1.3125 3.304688 -1.21875 3.640625 -1.21875 Z M 3.640625 -1.21875 "/></g></g></g><g fill="#000000" fill-opacity="1"><g transform="translate(76.626955, 229.320157)"><g><path d="M 4.46875 0.140625 C 3.875 0.140625 3.3125 -0.144531 2.78125 -0.71875 L 2.78125 0 L 0.953125 0 L 0.953125 -13.84375 L 2.78125 -13.84375 L 2.78125 -9.09375 C 3.320312 -9.707031 3.945312 -10.015625 4.65625 -10.015625 C 5.550781 -10.015625 6.148438 -9.628906 6.453125 -8.859375 C 6.753906 -8.085938 6.90625 -7.238281 6.90625 -6.3125 L 6.90625 -3.921875 C 6.90625 -1.210938 6.09375 0.140625 4.46875 0.140625 Z M 4.078125 -1.296875 C 4.503906 -1.296875 4.773438 -1.507812 4.890625 -1.9375 C 5.015625 -2.363281 5.078125 -3.023438 5.078125 -3.921875 L 5.078125 -6.3125 C 5.078125 -7.039062 5.007812 -7.597656 4.875 -7.984375 C 4.738281 -8.378906 4.453125 -8.578125 4.015625 -8.578125 C 3.617188 -8.578125 3.207031 -8.410156 2.78125 -8.078125 L 2.78125 -1.75 C 3.15625 -1.445312 3.585938 -1.296875 4.078125 -1.296875 Z M 4.078125 -1.296875 "/></g></g></g><g fill="#000000" fill-opacity="1"><g transform="translate(84.269605, 229.320157)"><g><path d="M 1.046875 -13.265625 L 2.875 -13.265625 L 2.875 -11.34375 L 1.046875 -11.34375 Z M 1.046875 -9.875 L 2.875 -9.875 L 2.875 0 L 1.046875 0 Z M 1.046875 -9.875 "/></g></g></g><g fill="#000000" fill-opacity="1"><g transform="translate(88.184972, 229.320157)"><g><path d="M 1.09375 -13.84375 L 2.921875 -13.84375 L 2.921875 0 L 1.09375 0 Z M 1.09375 -13.84375 "/></g></g></g><g fill="#000000" fill-opacity="1"><g transform="translate(92.100339, 229.320157)"><g><path d="M 3.65625 0.140625 C 2.894531 0.140625 2.300781 -0.00390625 1.875 -0.296875 C 1.457031 -0.585938 1.160156 -1.015625 0.984375 -1.578125 C 0.816406 -2.148438 0.734375 -2.894531 0.734375 -3.8125 L 0.734375 -6.0625 C 0.734375 -7.4375 0.945312 -8.4375 1.375 -9.0625 C 1.800781 -9.695312 2.5625 -10.015625 3.65625 -10.015625 C 4.457031 -10.015625 5.054688 -9.847656 5.453125 -9.515625 C 5.859375 -9.191406 6.128906 -8.726562 6.265625 -8.125 C 6.398438 -7.53125 6.46875 -6.722656 6.46875 -5.703125 L 6.46875 -4.90625 L 2.5625 -4.90625 L 2.5625 -2.921875 C 2.5625 -2.316406 2.648438 -1.878906 2.828125 -1.609375 C 3.003906 -1.347656 3.285156 -1.21875 3.671875 -1.21875 C 4.054688 -1.21875 4.316406 -1.347656 4.453125 -1.609375 C 4.597656 -1.878906 4.671875 -2.289062 4.671875 -2.84375 L 4.671875 -3.4375 L 6.4375 -3.4375 L 6.4375 -3.0625 C 6.4375 -2.019531 6.210938 -1.222656 5.765625 -0.671875 C 5.328125 -0.128906 4.625 0.140625 3.65625 0.140625 Z M 4.671875 -5.890625 L 4.671875 -6.78125 C 4.671875 -7.457031 4.601562 -7.941406 4.46875 -8.234375 C 4.332031 -8.523438 4.054688 -8.671875 3.640625 -8.671875 C 3.347656 -8.671875 3.125 -8.597656 2.96875 -8.453125 C 2.8125 -8.316406 2.703125 -8.09375 2.640625 -7.78125 C 2.585938 -7.46875 2.5625 -7.015625 2.5625 -6.421875 L 2.5625 -5.890625 Z M 4.671875 -5.890625 "/></g></g></g><g fill="#000000" fill-opacity="1"><g transform="translate(99.298455, 229.320157)"><g/></g></g><g fill="#000000" fill-opacity="1"><g transform="translate(103.213822, 229.320157)"><g><path d="M 4.65625 0.15625 C 3.6875 0.15625 2.929688 -0.0351562 2.390625 -0.421875 C 1.847656 -0.816406 1.472656 -1.359375 1.265625 -2.046875 C 1.054688 -2.742188 0.953125 -3.617188 0.953125 -4.671875 L 0.953125 -13.84375 L 2.796875 -13.84375 L 2.796875 -4.578125 C 2.796875 -3.535156 2.914062 -2.738281 3.15625 -2.1875 C 3.40625 -1.644531 3.90625 -1.375 4.65625 -1.375 C 5.394531 -1.375 5.882812 -1.644531 6.125 -2.1875 C 6.375 -2.738281 6.5 -3.535156 6.5 -4.578125 L 6.5 -13.84375 L 8.328125 -13.84375 L 8.328125 -4.671875 C 8.328125 -3.617188 8.222656 -2.742188 8.015625 -2.046875 C 7.804688 -1.359375 7.4375 -0.816406 6.90625 -0.421875 C 6.375 -0.0351562 5.625 0.15625 4.65625 0.15625 Z M 4.65625 0.15625 "/></g></g></g><g fill="#000000" fill-opacity="1"><g transform="translate(112.497841, 229.320157)"><g><path d="M 3.21875 0.140625 C 2.414062 0.140625 1.765625 -0.109375 1.265625 -0.609375 C 0.773438 -1.117188 0.492188 -1.789062 0.421875 -2.625 L 1.953125 -3.09375 C 2.035156 -2.457031 2.1875 -1.984375 2.40625 -1.671875 C 2.632812 -1.367188 2.957031 -1.21875 3.375 -1.21875 C 3.6875 -1.21875 3.929688 -1.3125 4.109375 -1.5 C 4.285156 -1.6875 4.375 -1.9375 4.375 -2.25 C 4.375 -2.539062 4.3125 -2.800781 4.1875 -3.03125 C 4.0625 -3.257812 3.859375 -3.488281 3.578125 -3.71875 L 1.875 -5.171875 C 1.488281 -5.503906 1.191406 -5.851562 0.984375 -6.21875 C 0.773438 -6.59375 0.671875 -7.050781 0.671875 -7.59375 C 0.671875 -8.351562 0.894531 -8.945312 1.34375 -9.375 C 1.800781 -9.800781 2.425781 -10.015625 3.21875 -10.015625 C 3.96875 -10.015625 4.554688 -9.769531 4.984375 -9.28125 C 5.410156 -8.800781 5.65625 -8.179688 5.71875 -7.421875 L 4.5 -6.953125 C 4.414062 -7.515625 4.28125 -7.941406 4.09375 -8.234375 C 3.914062 -8.523438 3.644531 -8.671875 3.28125 -8.671875 C 2.988281 -8.671875 2.753906 -8.570312 2.578125 -8.375 C 2.398438 -8.175781 2.3125 -7.9375 2.3125 -7.65625 C 2.3125 -7.289062 2.472656 -6.960938 2.796875 -6.671875 L 4.546875 -5.0625 C 4.992188 -4.644531 5.335938 -4.238281 5.578125 -3.84375 C 5.828125 -3.445312 5.953125 -2.960938 5.953125 -2.390625 C 5.953125 -1.566406 5.707031 -0.9375 5.21875 -0.5 C 4.726562 -0.0703125 4.0625 0.140625 3.21875 0.140625 Z M 3.21875 0.140625 "/></g></g></g><g fill="#000000" fill-opacity="1"><g transform="translate(118.892364, 229.320157)"><g><path d="M 3.65625 0.140625 C 2.894531 0.140625 2.300781 -0.00390625 1.875 -0.296875 C 1.457031 -0.585938 1.160156 -1.015625 0.984375 -1.578125 C 0.816406 -2.148438 0.734375 -2.894531 0.734375 -3.8125 L 0.734375 -6.0625 C 0.734375 -7.4375 0.945312 -8.4375 1.375 -9.0625 C 1.800781 -9.695312 2.5625 -10.015625 3.65625 -10.015625 C 4.457031 -10.015625 5.054688 -9.847656 5.453125 -9.515625 C 5.859375 -9.191406 6.128906 -8.726562 6.265625 -8.125 C 6.398438 -7.53125 6.46875 -6.722656 6.46875 -5.703125 L 6.46875 -4.90625 L 2.5625 -4.90625 L 2.5625 -2.921875 C 2.5625 -2.316406 2.648438 -1.878906 2.828125 -1.609375 C 3.003906 -1.347656 3.285156 -1.21875 3.671875 -1.21875 C 4.054688 -1.21875 4.316406 -1.347656 4.453125 -1.609375 C 4.597656 -1.878906 4.671875 -2.289062 4.671875 -2.84375 L 4.671875 -3.4375 L 6.4375 -3.4375 L 6.4375 -3.0625 C 6.4375 -2.019531 6.210938 -1.222656 5.765625 -0.671875 C 5.328125 -0.128906 4.625 0.140625 3.65625 0.140625 Z M 4.671875 -5.890625 L 4.671875 -6.78125 C 4.671875 -7.457031 4.601562 -7.941406 4.46875 -8.234375 C 4.332031 -8.523438 4.054688 -8.671875 3.640625 -8.671875 C 3.347656 -8.671875 3.125 -8.597656 2.96875 -8.453125 C 2.8125 -8.316406 2.703125 -8.09375 2.640625 -7.78125 C 2.585938 -7.46875 2.5625 -7.015625 2.5625 -6.421875 L 2.5625 -5.890625 Z M 4.671875 -5.890625 "/></g></g></g><g fill="#000000" fill-opacity="1"><g transform="translate(126.09048, 229.320157)"><g><path d="M 0.96875 -9.875 L 2.796875 -9.875 L 2.796875 -8.484375 C 3.140625 -9.035156 3.488281 -9.425781 3.84375 -9.65625 C 4.207031 -9.882812 4.585938 -10 4.984375 -10 C 5.085938 -10 5.1875 -9.992188 5.28125 -9.984375 L 5.28125 -7.96875 C 4.914062 -8.101562 4.578125 -8.171875 4.265625 -8.171875 C 3.972656 -8.171875 3.707031 -8.097656 3.46875 -7.953125 C 3.238281 -7.816406 3.015625 -7.570312 2.796875 -7.21875 L 2.796875 0 L 0.96875 0 Z M 0.96875 -9.875 "/></g></g></g><g fill="#000000" fill-opacity="1"><g transform="translate(131.578826, 229.320157)"><g><path d="M 3.21875 0.140625 C 2.414062 0.140625 1.765625 -0.109375 1.265625 -0.609375 C 0.773438 -1.117188 0.492188 -1.789062 0.421875 -2.625 L 1.953125 -3.09375 C 2.035156 -2.457031 2.1875 -1.984375 2.40625 -1.671875 C 2.632812 -1.367188 2.957031 -1.21875 3.375 -1.21875 C 3.6875 -1.21875 3.929688 -1.3125 4.109375 -1.5 C 4.285156 -1.6875 4.375 -1.9375 4.375 -2.25 C 4.375 -2.539062 4.3125 -2.800781 4.1875 -3.03125 C 4.0625 -3.257812 3.859375 -3.488281 3.578125 -3.71875 L 1.875 -5.171875 C 1.488281 -5.503906 1.191406 -5.851562 0.984375 -6.21875 C 0.773438 -6.59375 0.671875 -7.050781 0.671875 -7.59375 C 0.671875 -8.351562 0.894531 -8.945312 1.34375 -9.375 C 1.800781 -9.800781 2.425781 -10.015625 3.21875 -10.015625 C 3.96875 -10.015625 4.554688 -9.769531 4.984375 -9.28125 C 5.410156 -8.800781 5.65625 -8.179688 5.71875 -7.421875 L 4.5 -6.953125 C 4.414062 -7.515625 4.28125 -7.941406 4.09375 -8.234375 C 3.914062 -8.523438 3.644531 -8.671875 3.28125 -8.671875 C 2.988281 -8.671875 2.753906 -8.570312 2.578125 -8.375 C 2.398438 -8.175781 2.3125 -7.9375 2.3125 -7.65625 C 2.3125 -7.289062 2.472656 -6.960938 2.796875 -6.671875 L 4.546875 -5.0625 C 4.992188 -4.644531 5.335938 -4.238281 5.578125 -3.84375 C 5.828125 -3.445312 5.953125 -2.960938 5.953125 -2.390625 C 5.953125 -1.566406 5.707031 -0.9375 5.21875 -0.5 C 4.726562 -0.0703125 4.0625 0.140625 3.21875 0.140625 Z M 3.21875 0.140625 "/></g></g></g><g fill="#000000" fill-opacity="1"><g transform="translate(62.561159, 252.570156)"><g><path d="M 4.703125 -3.703125 L 0.6875 -3.703125 L 0.6875 -5.625 L 4.296875 -13.84375 L 6.4375 -13.84375 L 6.4375 -5.328125 L 8 -5.328125 L 8 -3.703125 L 6.4375 -3.703125 L 6.4375 0 L 4.703125 0 Z M 4.703125 -5.328125 L 4.703125 -11.625 L 2.4375 -5.328125 Z M 4.703125 -5.328125 "/></g></g></g><g fill="#000000" fill-opacity="1"><g transform="translate(70.81933, 252.570156)"><g><path d="M 4.0625 0.15625 C 2.957031 0.15625 2.117188 -0.148438 1.546875 -0.765625 C 0.972656 -1.390625 0.6875 -2.269531 0.6875 -3.40625 L 0.6875 -3.859375 L 2.5 -3.859375 L 2.5 -3.5625 C 2.519531 -2.851562 2.640625 -2.3125 2.859375 -1.9375 C 3.085938 -1.5625 3.488281 -1.375 4.0625 -1.375 C 4.675781 -1.375 5.09375 -1.585938 5.3125 -2.015625 C 5.539062 -2.441406 5.65625 -3.078125 5.65625 -3.921875 C 5.65625 -4.691406 5.507812 -5.296875 5.21875 -5.734375 C 4.9375 -6.171875 4.476562 -6.414062 3.84375 -6.46875 C 3.800781 -6.476562 3.71875 -6.484375 3.59375 -6.484375 L 3.59375 -8.3125 L 3.828125 -8.3125 C 4.472656 -8.332031 4.9375 -8.5 5.21875 -8.8125 C 5.507812 -9.132812 5.65625 -9.664062 5.65625 -10.40625 C 5.65625 -11.09375 5.539062 -11.609375 5.3125 -11.953125 C 5.082031 -12.304688 4.671875 -12.484375 4.078125 -12.484375 C 3.492188 -12.484375 3.085938 -12.289062 2.859375 -11.90625 C 2.640625 -11.53125 2.519531 -10.976562 2.5 -10.25 L 2.5 -9.96875 L 0.6875 -9.96875 L 0.6875 -10.421875 C 0.6875 -11.554688 0.972656 -12.429688 1.546875 -13.046875 C 2.117188 -13.660156 2.960938 -13.96875 4.078125 -13.96875 C 5.203125 -13.96875 6.050781 -13.65625 6.625 -13.03125 C 7.195312 -12.414062 7.484375 -11.539062 7.484375 -10.40625 C 7.484375 -9.601562 7.304688 -8.941406 6.953125 -8.421875 C 6.597656 -7.910156 6.113281 -7.566406 5.5 -7.390625 C 6.125 -7.191406 6.609375 -6.796875 6.953125 -6.203125 C 7.304688 -5.609375 7.484375 -4.847656 7.484375 -3.921875 C 7.484375 -2.628906 7.207031 -1.625 6.65625 -0.90625 C 6.101562 -0.195312 5.238281 0.15625 4.0625 0.15625 Z M 4.0625 0.15625 "/></g></g></g><g fill="#000000" fill-opacity="1"><g transform="translate(78.974905, 252.570156)"><g><path d="M 0.84375 -2.03125 L 2.671875 -2.03125 L 2.671875 0 L 0.84375 0 Z M 0.84375 -2.03125 "/></g></g></g><g fill="#000000" fill-opacity="1"><g transform="translate(82.189264, 252.570156)"><g><path d="M 2.921875 -11.453125 C 2.898438 -11.421875 2.554688 -11.34375 1.890625 -11.21875 C 1.222656 -11.09375 0.765625 -11.003906 0.515625 -10.953125 L 0.515625 -12.34375 C 1.898438 -12.675781 2.851562 -13.175781 3.375 -13.84375 L 4.75 -13.84375 L 4.75 0 L 2.921875 0 Z M 2.921875 -11.453125 "/></g></g></g><g fill="#000000" fill-opacity="1"><g transform="translate(88.959932, 252.570156)"><g><path d="M 3.296875 -6.5 C 2.378906 -6.5 1.703125 -6.773438 1.265625 -7.328125 C 0.828125 -7.890625 0.609375 -8.679688 0.609375 -9.703125 L 0.609375 -10.78125 C 0.609375 -11.832031 0.816406 -12.625 1.234375 -13.15625 C 1.660156 -13.6875 2.347656 -13.953125 3.296875 -13.953125 C 4.242188 -13.953125 4.925781 -13.691406 5.34375 -13.171875 C 5.769531 -12.660156 5.984375 -11.894531 5.984375 -10.875 L 5.984375 -9.65625 C 5.984375 -8.632812 5.769531 -7.851562 5.34375 -7.3125 C 4.914062 -6.769531 4.234375 -6.5 3.296875 -6.5 Z M 8.75 -13.859375 L 10.328125 -13.859375 L 6.53125 0 L 4.9375 0 Z M 3.296875 -7.875 C 3.691406 -7.875 3.960938 -8.035156 4.109375 -8.359375 C 4.253906 -8.679688 4.328125 -9.113281 4.328125 -9.65625 L 4.328125 -10.875 C 4.328125 -11.414062 4.257812 -11.832031 4.125 -12.125 C 3.988281 -12.414062 3.710938 -12.5625 3.296875 -12.5625 C 2.890625 -12.5625 2.617188 -12.410156 2.484375 -12.109375 C 2.359375 -11.816406 2.296875 -11.398438 2.296875 -10.859375 L 2.296875 -9.640625 C 2.296875 -9.097656 2.363281 -8.664062 2.5 -8.34375 C 2.644531 -8.03125 2.910156 -7.875 3.296875 -7.875 Z M 11.9375 0.078125 C 10.15625 0.078125 9.265625 -0.988281 9.265625 -3.125 L 9.265625 -4.203125 C 9.265625 -5.242188 9.472656 -6.03125 9.890625 -6.5625 C 10.304688 -7.101562 10.988281 -7.375 11.9375 -7.375 C 12.875 -7.375 13.550781 -7.113281 13.96875 -6.59375 C 14.394531 -6.082031 14.609375 -5.304688 14.609375 -4.265625 L 14.609375 -3.078125 C 14.609375 -2.035156 14.394531 -1.25 13.96875 -0.71875 C 13.539062 -0.1875 12.863281 0.078125 11.9375 0.078125 Z M 11.9375 -1.296875 C 12.332031 -1.296875 12.597656 -1.453125 12.734375 -1.765625 C 12.878906 -2.078125 12.953125 -2.507812 12.953125 -3.0625 L 12.953125 -4.296875 C 12.953125 -4.835938 12.882812 -5.253906 12.75 -5.546875 C 12.613281 -5.835938 12.34375 -5.984375 11.9375 -5.984375 C 11.519531 -5.984375 11.242188 -5.832031 11.109375 -5.53125 C 10.984375 -5.238281 10.921875 -4.816406 10.921875 -4.265625 L 10.921875 -3.0625 C 10.921875 -2.507812 10.988281 -2.078125 11.125 -1.765625 C 11.269531 -1.453125 11.539062 -1.296875 11.9375 -1.296875 Z M 11.9375 -1.296875 "/></g></g></g><g clip-path="url(#e7241de39f)"><g clip-path="url(#12c34d725b)"><path fill="#79e0ff" d="M 168 72 L 600 72 L 600 504 L 168 504 Z M 168 72 " fill-opacity="1" fill-rule="nonzero"/></g></g><g clip-path="url(#72ba5f8df3)"><g clip-path="url(#1045ac8e62)"><path fill="#f15a5a" d="M 168 72 L 600 72 L 600 504 L 168 504 Z M 168 72 " fill-opacity="1" fill-rule="nonzero"/></g></g></svg>